<svg width="44" height="44" viewBox="0 0 44 44" fill="none" xmlns="http://www.w3.org/2000/svg">
<rect width="44" height="44" rx="22" fill="white" fill-opacity="0.3"/>
<path d="M30.5894 22.1137C30.817 21.9023 30.9308 21.7966 30.9725 21.6708C31.0092 21.5604 31.0092 21.4396 30.9725 21.3292C30.9308 21.2034 30.817 21.0977 30.5894 20.8863L22.6909 13.5505C22.2991 13.1866 22.1032 13.0046 21.9373 13.0002C21.7932 12.9963 21.6555 13.0649 21.5644 13.186C21.4595 13.3254 21.4595 13.605 21.4595 14.1642V18.5039C19.4691 18.8812 17.6473 19.9741 16.2935 21.615C14.8176 23.404 14.0012 25.7192 14 28.1188V28.7371C14.9784 27.4599 16.2001 26.427 17.5813 25.7091C18.799 25.0761 20.1153 24.7011 21.4595 24.6023V28.8358C21.4595 29.395 21.4595 29.6746 21.5644 29.814C21.6555 29.9351 21.7932 30.0037 21.9373 29.9998C22.1032 29.9954 22.2991 29.8134 22.6909 29.4495L30.5894 22.1137Z" stroke="white" stroke-width="1.5" stroke-linecap="round" stroke-linejoin="round"/>
</svg>
