<svg width="154" height="68" viewBox="0 0 154 68" fill="none" xmlns="http://www.w3.org/2000/svg">
<path fill-rule="evenodd" clip-rule="evenodd" d="M20.2773 2.32659C13.6984 11.2779 0 32.7369 0 34.0921C0 35.8517 20.1352 66.3186 22.1478 67.6043C22.9721 68.1305 23.684 68.1319 24.5041 67.6086C26.516 66.3229 46.6583 35.7651 46.6583 33.9976C46.6583 33.0584 42.6506 26.3678 37.3754 18.4989C25.3793 0.606346 24.919 0 23.3291 0C22.5911 0 21.2175 1.04661 20.2773 2.32659ZM18.9107 11.0531C16.6747 14.3561 14.8458 17.2504 14.8458 17.4845C14.8458 18.2426 22.818 30.0667 23.3291 30.0667C23.8403 30.0667 31.8125 18.2426 31.8125 17.4845C31.8125 16.8681 23.7498 5.04763 23.3291 5.04763C23.1347 5.04763 21.1468 7.75005 18.9107 11.0531ZM89.7974 9.84327C89.8214 10.6522 92.4738 13.9903 92.775 13.5909C92.9192 13.3997 93.5845 12.3574 94.2539 11.275L95.4699 9.30636H92.6258C91.0614 9.30636 89.7889 9.54833 89.7974 9.84327ZM58.4409 13.3632C58.1814 13.6252 57.9694 17.6184 57.9694 22.2365V30.6323L60.9739 30.9394C64.4237 31.293 68.0666 30.474 69.1999 29.0917C69.6283 28.5684 70.1768 27.1374 70.4193 25.9111C71.0231 22.8557 67.682 19.3286 64.1841 19.3286C62.2782 19.3286 61.8074 19.0444 61.8074 17.8969C61.8074 16.6455 62.2782 16.4651 65.5435 16.4651C69.0585 16.4651 69.2804 16.3584 69.2804 14.6754C69.2804 12.9294 69.1546 12.8857 64.0964 12.8857C61.2446 12.8857 58.6996 13.1005 58.4409 13.3632ZM75.7546 14.1385C75.3997 14.8272 74.2828 18.3257 73.2719 21.9115C72.2609 25.498 71.233 28.9614 70.9884 29.6071C70.6371 30.5349 70.987 30.7826 72.6512 30.7826C74.4277 30.7826 74.8257 30.4454 75.1834 28.635C75.556 26.7472 75.9024 26.4873 78.0437 26.4873C80.1752 26.4873 80.5371 26.7558 80.945 28.635C81.3374 30.4447 81.7481 30.7826 83.5508 30.7826C85.2453 30.7826 85.5988 30.5378 85.2461 29.6071C85.0014 28.9614 83.9736 25.498 82.9626 21.9115C80.6396 13.671 80.2183 12.8857 78.1172 12.8857C77.1728 12.8857 76.1095 13.4498 75.7546 14.1385ZM86.573 13.7734C86.3659 14.3203 86.2874 18.2906 86.3984 22.5959L86.6006 30.4247H88.9907C91.2848 30.4247 91.4771 30.2077 93.7414 25.0556L96.1019 19.6865L96.1231 25.2346C96.1436 30.6874 96.1747 30.7826 97.9336 30.7826H99.7228L99.5242 22.0131L99.3255 13.2437H97.2598C95.3483 13.2437 94.9948 13.6983 92.5233 19.3286L89.8525 25.4135L89.6404 19.3365C89.4616 14.2151 89.2332 13.2215 88.1891 13.0196C87.5076 12.8879 86.7801 13.2272 86.573 13.7734ZM107.455 14.6754C107.455 16.1866 107.786 16.4651 109.576 16.4651H111.697V23.6238V30.7826H113.464H115.232V23.6238V16.4651H117.353C119.143 16.4651 119.473 16.1866 119.473 14.6754C119.473 12.9065 119.403 12.8857 113.464 12.8857C107.526 12.8857 107.455 12.9065 107.455 14.6754ZM123.473 13.4226C122.986 14.2273 118.766 29.0845 118.766 29.9944C118.766 30.4282 119.57 30.7826 120.552 30.7826C121.976 30.7826 122.424 30.3416 122.768 28.5977C123.164 26.5947 123.41 26.4308 125.727 26.6291C127.759 26.803 128.334 27.1961 128.664 28.635C128.961 29.935 129.615 30.4884 131.054 30.6573C132.689 30.8499 132.968 30.6623 132.652 29.5835C132.442 28.8648 131.421 25.2167 130.382 21.4762C129.343 17.7358 128.174 14.2731 127.785 13.7806C127.014 12.807 123.998 12.5564 123.473 13.4226ZM134.791 13.3632C134.531 13.6252 134.319 17.1459 134.319 21.1863C134.319 30.8878 134.207 30.7826 144.534 30.7826C150.508 30.7826 152.733 30.5306 153.344 29.7839C153.883 29.1268 154.094 26.1308 153.962 21.0145C153.774 13.7892 153.661 13.2437 152.346 13.2437C151.043 13.2437 150.917 13.7892 150.73 20.2234L150.528 27.2032H148.458H146.388L146.186 20.2234C145.999 13.7892 145.874 13.2437 144.57 13.2437C143.266 13.2437 143.14 13.7892 142.954 20.2234L142.752 27.2032H140.303H137.854V20.0445C137.854 13.5801 137.728 12.8857 136.558 12.8857C135.845 12.8857 135.05 13.1005 134.791 13.3632ZM77.2569 19.8877C76.528 22.7956 76.562 22.908 78.1554 22.908C79.6393 22.908 79.7475 22.704 79.196 20.9393C78.8581 19.8569 78.4537 18.4975 78.2982 17.919C78.142 17.3413 77.6733 18.2269 77.2569 19.8877ZM125.141 18.2548C125.124 19.0423 124.918 20.411 124.684 21.2973C124.339 22.5994 124.546 22.908 125.767 22.908C127.055 22.908 127.209 22.6188 126.814 20.9393C126.56 19.8569 126.087 18.4875 125.762 17.8969C125.288 17.0335 125.166 17.1044 125.141 18.2548ZM8.98172 25.9504C7.27303 28.4116 5.64706 30.8277 5.36994 31.3195C4.97971 32.011 6.56468 32.2143 12.351 32.2143H19.8375L16.2597 26.8453C14.2916 23.8923 12.549 21.4762 12.3856 21.4762C12.2231 21.4762 10.6911 23.49 8.98172 25.9504ZM30.3986 26.8453L26.8207 32.2143H34.3073C40.1007 32.2143 41.6764 32.0117 41.2756 31.3195C40.1862 29.4339 34.5031 21.4762 34.2465 21.4762C34.098 21.4762 32.3667 23.8923 30.3986 26.8453ZM61.8575 25.4135C61.8575 27.8382 61.977 27.9714 63.9784 27.7723C65.8171 27.5891 66.0992 27.2755 66.0992 25.4135C66.0992 23.5515 65.8171 23.238 63.9784 23.0547C61.977 22.8557 61.8575 22.9889 61.8575 25.4135ZM5.36994 36.6886C6.43601 38.5799 12.1043 46.5318 12.3856 46.5318C12.549 46.5318 14.2916 44.1157 16.2597 41.1628L19.8375 35.7937H12.351C6.56468 35.7937 4.97971 35.997 5.36994 36.6886ZM30.412 41.1828C32.3872 44.1472 34.3073 46.3822 34.6784 46.1495C35.256 45.7887 39.6765 39.4475 41.2749 36.6886C41.6757 35.9963 40.1007 35.7937 34.3073 35.7937H26.8207L30.412 41.1828ZM71.578 36.9792C70.0362 37.3142 69.9874 37.5884 69.9874 45.8661V54.4064H72.1082C74.1506 54.4064 74.229 54.2869 74.229 51.185C74.229 47.9729 74.2361 47.9636 76.7352 47.9636C78.4537 47.9636 79.787 47.4109 80.9768 46.2061C84.5914 42.5458 81.963 37.262 76.3266 36.8589C74.5896 36.7344 72.4525 36.7888 71.578 36.9792ZM57.9694 45.8159V54.4064H60.0902H62.211L62.2103 47.4267L62.2089 40.4469H65.2148C67.793 40.4469 68.2518 40.2178 68.4463 38.8362C68.6633 37.2877 68.4653 37.2255 63.3209 37.2255H57.9694V45.8159ZM84.566 43.1314C85.4949 46.3793 86.7306 49.3953 87.3117 49.832C88.9625 51.074 88.5743 51.5429 85.8936 51.5429C83.9382 51.5429 83.4193 51.8264 83.4193 52.8974C83.4193 54.6892 86.4641 55.4416 88.8889 54.2497C90.4654 53.4751 91.1144 52.1106 93.0726 45.458C94.3472 41.127 95.4006 37.5032 95.414 37.4044C95.4267 37.3056 94.5176 37.2255 93.3936 37.2255C91.4417 37.2255 91.3074 37.4374 90.4336 41.8887C89.9303 44.4529 89.3103 46.3056 89.0551 46.0049C88.7999 45.7043 88.2004 43.606 87.7225 41.3417C86.9137 37.5154 86.713 37.2255 84.865 37.2255H82.8771L84.566 43.1314ZM97.2549 38.3501C96.3875 39.2292 96.1443 41.1084 96.1443 46.9406V54.4064H98.2651H100.386V47.2047V40.0023L103.037 40.225L105.688 40.4469L105.89 47.4267C106.09 54.3119 106.116 54.4064 107.834 54.4064H109.576V46.675C109.576 41.6159 109.283 38.6465 108.728 38.0845C107.423 36.763 98.6214 36.967 97.2549 38.3501ZM113.136 38.61C112.733 39.3716 112.404 43.2588 112.404 47.2484V54.5017L114.348 54.2747L116.292 54.0485L116.347 47.2477L116.402 40.4469H119.175H121.948L122.15 47.4267C122.35 54.3119 122.376 54.4064 124.094 54.4064C125.83 54.4064 125.836 54.3814 125.836 47.2004C125.836 37.4832 125.663 37.2255 119.12 37.2255C114.651 37.2255 113.758 37.4316 113.136 38.61ZM18.9107 43.9769C16.6747 47.2964 14.8458 50.2179 14.8458 50.4691C14.8458 51.1728 22.9191 62.9969 23.3998 62.9969C23.8402 62.9969 31.8125 51.1249 31.8125 50.4691C31.8125 49.8134 23.8402 37.9413 23.3998 37.9413C23.1665 37.9413 21.1468 40.6574 18.9107 43.9769ZM74.229 42.5945C74.229 45.0092 74.3683 45.1788 76.1731 44.9684C77.8125 44.7779 78.1172 44.405 78.1172 42.5945C78.1172 40.7841 77.8125 40.4111 76.1731 40.2207C74.3683 40.0102 74.229 40.1799 74.229 42.5945Z" fill="url(#paint0_radial_599_822)"/>
<path fill-rule="evenodd" clip-rule="evenodd" d="M20.2773 2.32659C13.6984 11.2779 0 32.7369 0 34.0921C0 35.8517 20.1352 66.3186 22.1478 67.6043C22.9721 68.1305 23.684 68.1319 24.5041 67.6086C26.516 66.3229 46.6583 35.7651 46.6583 33.9976C46.6583 33.0584 42.6506 26.3678 37.3754 18.4989C25.3793 0.606346 24.919 0 23.3291 0C22.5911 0 21.2175 1.04661 20.2773 2.32659ZM18.9107 11.0531C16.6747 14.3561 14.8458 17.2504 14.8458 17.4845C14.8458 18.2426 22.818 30.0667 23.3291 30.0667C23.8403 30.0667 31.8125 18.2426 31.8125 17.4845C31.8125 16.8681 23.7498 5.04763 23.3291 5.04763C23.1347 5.04763 21.1468 7.75005 18.9107 11.0531ZM89.7974 9.84327C89.8214 10.6522 92.4738 13.9903 92.775 13.5909C92.9192 13.3997 93.5845 12.3574 94.2539 11.275L95.4699 9.30636H92.6258C91.0614 9.30636 89.7889 9.54833 89.7974 9.84327ZM58.4409 13.3632C58.1814 13.6252 57.9694 17.6184 57.9694 22.2365V30.6323L60.9739 30.9394C64.4237 31.293 68.0666 30.474 69.1999 29.0917C69.6283 28.5684 70.1768 27.1374 70.4193 25.9111C71.0231 22.8557 67.682 19.3286 64.1841 19.3286C62.2782 19.3286 61.8074 19.0444 61.8074 17.8969C61.8074 16.6455 62.2782 16.4651 65.5435 16.4651C69.0585 16.4651 69.2804 16.3584 69.2804 14.6754C69.2804 12.9294 69.1546 12.8857 64.0964 12.8857C61.2446 12.8857 58.6996 13.1005 58.4409 13.3632ZM75.7546 14.1385C75.3997 14.8272 74.2828 18.3257 73.2719 21.9115C72.2609 25.498 71.233 28.9614 70.9884 29.6071C70.6371 30.5349 70.987 30.7826 72.6512 30.7826C74.4277 30.7826 74.8257 30.4454 75.1834 28.635C75.556 26.7472 75.9024 26.4873 78.0437 26.4873C80.1752 26.4873 80.5371 26.7558 80.945 28.635C81.3374 30.4447 81.7481 30.7826 83.5508 30.7826C85.2453 30.7826 85.5988 30.5378 85.2461 29.6071C85.0014 28.9614 83.9736 25.498 82.9626 21.9115C80.6396 13.671 80.2183 12.8857 78.1172 12.8857C77.1728 12.8857 76.1095 13.4498 75.7546 14.1385ZM86.573 13.7734C86.3659 14.3203 86.2874 18.2906 86.3984 22.5959L86.6006 30.4247H88.9907C91.2848 30.4247 91.4771 30.2077 93.7414 25.0556L96.1019 19.6865L96.1231 25.2346C96.1436 30.6874 96.1747 30.7826 97.9336 30.7826H99.7228L99.5242 22.0131L99.3255 13.2437H97.2598C95.3483 13.2437 94.9948 13.6983 92.5233 19.3286L89.8525 25.4135L89.6404 19.3365C89.4616 14.2151 89.2332 13.2215 88.1891 13.0196C87.5076 12.8879 86.7801 13.2272 86.573 13.7734ZM107.455 14.6754C107.455 16.1866 107.786 16.4651 109.576 16.4651H111.697V23.6238V30.7826H113.464H115.232V23.6238V16.4651H117.353C119.143 16.4651 119.473 16.1866 119.473 14.6754C119.473 12.9065 119.403 12.8857 113.464 12.8857C107.526 12.8857 107.455 12.9065 107.455 14.6754ZM123.473 13.4226C122.986 14.2273 118.766 29.0845 118.766 29.9944C118.766 30.4282 119.57 30.7826 120.552 30.7826C121.976 30.7826 122.424 30.3416 122.768 28.5977C123.164 26.5947 123.41 26.4308 125.727 26.6291C127.759 26.803 128.334 27.1961 128.664 28.635C128.961 29.935 129.615 30.4884 131.054 30.6573C132.689 30.8499 132.968 30.6623 132.652 29.5835C132.442 28.8648 131.421 25.2167 130.382 21.4762C129.343 17.7358 128.174 14.2731 127.785 13.7806C127.014 12.807 123.998 12.5564 123.473 13.4226ZM134.791 13.3632C134.531 13.6252 134.319 17.1459 134.319 21.1863C134.319 30.8878 134.207 30.7826 144.534 30.7826C150.508 30.7826 152.733 30.5306 153.344 29.7839C153.883 29.1268 154.094 26.1308 153.962 21.0145C153.774 13.7892 153.661 13.2437 152.346 13.2437C151.043 13.2437 150.917 13.7892 150.73 20.2234L150.528 27.2032H148.458H146.388L146.186 20.2234C145.999 13.7892 145.874 13.2437 144.57 13.2437C143.266 13.2437 143.14 13.7892 142.954 20.2234L142.752 27.2032H140.303H137.854V20.0445C137.854 13.5801 137.728 12.8857 136.558 12.8857C135.845 12.8857 135.05 13.1005 134.791 13.3632ZM77.2569 19.8877C76.528 22.7956 76.562 22.908 78.1554 22.908C79.6393 22.908 79.7475 22.704 79.196 20.9393C78.8581 19.8569 78.4537 18.4975 78.2982 17.919C78.142 17.3413 77.6733 18.2269 77.2569 19.8877ZM125.141 18.2548C125.124 19.0423 124.918 20.411 124.684 21.2973C124.339 22.5994 124.546 22.908 125.767 22.908C127.055 22.908 127.209 22.6188 126.814 20.9393C126.56 19.8569 126.087 18.4875 125.762 17.8969C125.288 17.0335 125.166 17.1044 125.141 18.2548ZM8.98172 25.9504C7.27303 28.4116 5.64706 30.8277 5.36994 31.3195C4.97971 32.011 6.56468 32.2143 12.351 32.2143H19.8375L16.2597 26.8453C14.2916 23.8923 12.549 21.4762 12.3856 21.4762C12.2231 21.4762 10.6911 23.49 8.98172 25.9504ZM30.3986 26.8453L26.8207 32.2143H34.3073C40.1007 32.2143 41.6764 32.0117 41.2756 31.3195C40.1862 29.4339 34.5031 21.4762 34.2465 21.4762C34.098 21.4762 32.3667 23.8923 30.3986 26.8453ZM61.8575 25.4135C61.8575 27.8382 61.977 27.9714 63.9784 27.7723C65.8171 27.5891 66.0992 27.2755 66.0992 25.4135C66.0992 23.5515 65.8171 23.238 63.9784 23.0547C61.977 22.8557 61.8575 22.9889 61.8575 25.4135ZM5.36994 36.6886C6.43601 38.5799 12.1043 46.5318 12.3856 46.5318C12.549 46.5318 14.2916 44.1157 16.2597 41.1628L19.8375 35.7937H12.351C6.56468 35.7937 4.97971 35.997 5.36994 36.6886ZM30.412 41.1828C32.3872 44.1472 34.3073 46.3822 34.6784 46.1495C35.256 45.7887 39.6765 39.4475 41.2749 36.6886C41.6757 35.9963 40.1007 35.7937 34.3073 35.7937H26.8207L30.412 41.1828ZM71.578 36.9792C70.0362 37.3142 69.9874 37.5884 69.9874 45.8661V54.4064H72.1082C74.1506 54.4064 74.229 54.2869 74.229 51.185C74.229 47.9729 74.2361 47.9636 76.7352 47.9636C78.4537 47.9636 79.787 47.4109 80.9768 46.2061C84.5914 42.5458 81.963 37.262 76.3266 36.8589C74.5896 36.7344 72.4525 36.7888 71.578 36.9792ZM57.9694 45.8159V54.4064H60.0902H62.211L62.2103 47.4267L62.2089 40.4469H65.2148C67.793 40.4469 68.2518 40.2178 68.4463 38.8362C68.6633 37.2877 68.4653 37.2255 63.3209 37.2255H57.9694V45.8159ZM84.566 43.1314C85.4949 46.3793 86.7306 49.3953 87.3117 49.832C88.9625 51.074 88.5743 51.5429 85.8936 51.5429C83.9382 51.5429 83.4193 51.8264 83.4193 52.8974C83.4193 54.6892 86.4641 55.4416 88.8889 54.2497C90.4654 53.4751 91.1144 52.1106 93.0726 45.458C94.3472 41.127 95.4006 37.5032 95.414 37.4044C95.4267 37.3056 94.5176 37.2255 93.3936 37.2255C91.4417 37.2255 91.3074 37.4374 90.4336 41.8887C89.9303 44.4529 89.3103 46.3056 89.0551 46.0049C88.7999 45.7043 88.2004 43.606 87.7225 41.3417C86.9137 37.5154 86.713 37.2255 84.865 37.2255H82.8771L84.566 43.1314ZM97.2549 38.3501C96.3875 39.2292 96.1443 41.1084 96.1443 46.9406V54.4064H98.2651H100.386V47.2047V40.0023L103.037 40.225L105.688 40.4469L105.89 47.4267C106.09 54.3119 106.116 54.4064 107.834 54.4064H109.576V46.675C109.576 41.6159 109.283 38.6465 108.728 38.0845C107.423 36.763 98.6214 36.967 97.2549 38.3501ZM113.136 38.61C112.733 39.3716 112.404 43.2588 112.404 47.2484V54.5017L114.348 54.2747L116.292 54.0485L116.347 47.2477L116.402 40.4469H119.175H121.948L122.15 47.4267C122.35 54.3119 122.376 54.4064 124.094 54.4064C125.83 54.4064 125.836 54.3814 125.836 47.2004C125.836 37.4832 125.663 37.2255 119.12 37.2255C114.651 37.2255 113.758 37.4316 113.136 38.61ZM18.9107 43.9769C16.6747 47.2964 14.8458 50.2179 14.8458 50.4691C14.8458 51.1728 22.9191 62.9969 23.3998 62.9969C23.8402 62.9969 31.8125 51.1249 31.8125 50.4691C31.8125 49.8134 23.8402 37.9413 23.3998 37.9413C23.1665 37.9413 21.1468 40.6574 18.9107 43.9769ZM74.229 42.5945C74.229 45.0092 74.3683 45.1788 76.1731 44.9684C77.8125 44.7779 78.1172 44.405 78.1172 42.5945C78.1172 40.7841 77.8125 40.4111 76.1731 40.2207C74.3683 40.0102 74.229 40.1799 74.229 42.5945Z" fill="#EAA000" fill-opacity="0.3"/>
<defs>
<radialGradient id="paint0_radial_599_822" cx="0" cy="0" r="1" gradientUnits="userSpaceOnUse" gradientTransform="translate(54.4444 34) rotate(7.6895) scale(100.459 41.3071)">
<stop offset="0.00775993" stop-color="#AE9152"/>
<stop offset="1" stop-color="#795F26"/>
</radialGradient>
</defs>
</svg>
