<svg width="20" height="20" viewBox="0 0 20 20" fill="none" xmlns="http://www.w3.org/2000/svg">
<path d="M1 19H2M19 19H18M2 19V5.3009C2 3.84322 2 3.11439 2.30408 2.62793C2.5704 2.2019 2.98731 1.89171 3.4719 1.75904C4.02521 1.60756 4.72331 1.81699 6.11951 2.23585L9.71951 3.31585C10.5378 3.56133 10.9469 3.68407 11.2502 3.92697C11.5179 4.1414 11.726 4.42109 11.8545 4.73916C12 5.09948 12 5.52662 12 6.3809V8M2 19H7M12 19V8M12 19H18M12 19H7M12 8L15.894 6.70199C16.6051 6.46498 16.9606 6.34648 17.2435 6.41753C17.4912 6.47973 17.7058 6.63435 17.8431 6.84968C18 7.09566 18 7.4704 18 8.21988V19M7 7V7.01M7 9.99V10M15 10.99V11M15 14V14.01M7 19V14" stroke="#EAA000" stroke-width="1.5" stroke-linecap="round"/>
</svg>
