<svg width="16" height="22" viewBox="0 0 16 22" fill="none" xmlns="http://www.w3.org/2000/svg">
<path fill-rule="evenodd" clip-rule="evenodd" d="M7.26691 0.137957C7.30886 0.110428 7.39515 0.0692878 7.45864 0.0465839C7.838 -0.0891134 8.24726 0.0762488 8.538 0.482629C8.69686 0.704688 9.50728 1.86571 9.87351 2.39597C10.0178 2.60485 10.2578 2.94869 10.4069 3.16001C11.0555 4.0798 11.654 4.93181 11.8888 5.26996C12.0281 5.47055 12.2334 5.76285 12.345 5.91952C12.577 6.24517 13.5697 7.65928 14.0975 8.41599C14.2933 8.69669 14.5577 9.07251 14.6852 9.25114C15.1244 9.86662 15.3712 10.2418 15.4535 10.419C15.5246 10.5721 15.5361 10.6373 15.5364 10.8905C15.5366 11.1545 15.527 11.2049 15.442 11.3854C15.3549 11.5705 15.0787 12.0132 14.6893 12.5918C14.6035 12.7194 14.4966 12.8794 14.4518 12.9475C14.3023 13.1746 12.9224 15.2313 12.667 15.6076C12.196 16.3015 11.5206 17.306 10.7224 18.4997C9.0086 21.0625 8.63788 21.6112 8.56974 21.6857C8.35122 21.9246 8.16371 22.0089 7.87238 21.9993C7.49139 21.9867 7.36602 21.8562 6.39369 20.4606C6.26205 20.2716 5.87656 19.7247 5.53705 19.2452C5.19754 18.7656 4.77531 18.1686 4.59873 17.9184C4.42219 17.6682 4.07496 17.1786 3.82712 16.8304C3.57931 16.4821 3.3531 16.162 3.32446 16.1189C3.29585 16.0759 3.18474 15.9193 3.07754 15.771C2.97038 15.6227 2.76782 15.3373 2.62742 15.1369C2.48701 14.9364 2.24395 14.5954 2.08729 14.3791C1.8417 14.04 1.35367 13.3537 1.00962 12.8637C0.0722939 11.5289 0.026738 11.4476 0.00362042 11.0695C-0.0204848 10.6745 0.0620782 10.496 0.67298 9.62232C0.833568 9.39266 1.06064 9.06555 1.17755 8.89543C1.2945 8.72531 1.56271 8.33557 1.77361 8.02934C1.98451 7.72312 2.28463 7.28466 2.44053 7.05499C2.59646 6.82533 2.94097 6.32423 3.20613 5.94145C3.47128 5.55867 3.86116 4.99114 4.07252 4.68028C4.54358 3.98741 5.09139 3.18578 5.46918 2.63653C5.62532 2.40949 5.76699 2.20209 5.78396 2.17564C5.82214 2.11619 6.47246 1.1631 6.71595 0.809763C6.94845 0.472391 7.17114 0.200842 7.26691 0.137957ZM7.73528 12.1046C7.67735 12.1769 7.52065 12.3961 7.38706 12.5918C7.25348 12.7874 7.02293 13.1215 6.87468 13.3341C6.00174 14.5864 4.87346 16.2908 4.87346 16.3571C4.87346 16.3928 5.13426 16.7887 5.36791 17.1078C5.4489 17.2184 5.58257 17.4075 5.66498 17.5281C5.80992 17.7401 5.98251 17.9871 6.27912 18.4069C6.35724 18.5175 6.45412 18.6567 6.49443 18.7162C6.53471 18.7758 6.727 19.0472 6.92175 19.3194C7.11648 19.5916 7.30821 19.8601 7.34781 19.9161C7.38737 19.9721 7.45451 20.0656 7.49694 20.1239C7.53938 20.1823 7.64355 20.3278 7.72843 20.4472C7.81331 20.5667 7.90581 20.6645 7.93399 20.6647C7.96405 20.6648 8.06103 20.553 8.1684 20.3943C8.26914 20.2454 8.45442 19.9739 8.58014 19.7909C8.70585 19.6078 8.87119 19.3614 8.94758 19.2431C9.02397 19.1248 9.24872 18.7874 9.44706 18.4933C10.5568 16.8473 10.924 16.2833 10.9131 16.2417C10.9064 16.2162 10.7622 16.0004 10.5926 15.7623C10.206 15.2195 9.51715 14.2425 9.13277 13.692C8.43464 12.6922 7.90587 11.9731 7.8688 11.9731C7.85327 11.9731 7.79318 12.0323 7.73528 12.1046ZM3.74848 11.5513C4.95287 11.5404 5.94183 11.5287 5.94619 11.5253C5.96578 11.5099 6.72907 11.5335 6.74555 11.5501C6.77691 11.5814 5.99785 12.7888 5.24383 13.8774C5.13349 14.0367 4.93905 14.3214 4.81173 14.51C4.33459 15.2168 4.19444 15.3923 4.19444 15.2828C4.19444 15.2658 4.17972 15.2519 4.16175 15.2519C4.14379 15.2519 4.13765 15.2658 4.14814 15.2828C4.18215 15.3379 4.087 15.3155 4.04984 15.2596C4.00567 15.1932 3.83409 14.9486 3.46616 14.4276C1.84704 12.1348 1.50166 11.6281 1.53512 11.5946C1.54805 11.5816 2.54405 11.5621 3.74848 11.5513ZM4.06607 6.69012C4.03792 6.71218 3.92771 6.85549 3.82116 7.0086C3.60082 7.32521 3.43884 7.55488 3.02162 8.14237C2.25846 9.21697 1.50197 10.363 1.52172 10.4146C1.5362 10.4524 1.80157 10.4578 3.33724 10.4519C6.17961 10.4408 6.69511 10.4299 6.71422 10.38C6.72833 10.3432 6.46848 9.93677 6.15644 9.50754C6.10437 9.4359 6.00511 9.2967 5.93588 9.19822C5.86668 9.09973 5.60973 8.73632 5.36488 8.39063C5.12007 8.04493 4.89892 7.73132 4.87346 7.6937C4.76673 7.53601 4.22867 6.78645 4.17527 6.72106C4.12604 6.6608 4.10953 6.6561 4.06607 6.69012ZM7.50306 1.64968C7.60824 1.50084 7.70895 1.36879 7.72682 1.35629C7.74466 1.3438 7.76247 1.33337 7.76636 1.3331C7.77827 1.33232 8.12254 1.78105 8.24448 1.95634C8.5755 2.4321 8.78943 2.73582 9.90762 4.31754C10.064 4.5387 10.3291 4.91888 10.4969 5.16241L10.8019 5.6052L10.7312 5.72642C10.6657 5.83888 9.4383 7.67579 9.0065 8.30773C8.90187 8.46084 8.68964 8.77402 8.53489 9.00369C8.22952 9.45693 7.91627 9.88586 7.86957 9.91478C7.83173 9.93823 7.34768 9.29238 6.58397 8.19947C6.46999 8.03636 6.02958 7.41241 5.83075 7.13232C5.64563 6.8716 5.39396 6.50784 5.21266 6.23902C5.15306 6.15064 5.03849 5.9859 4.95803 5.87291C4.87756 5.75992 4.81173 5.64754 4.81173 5.62317C4.81173 5.59882 4.84371 5.53173 4.88275 5.47408C4.92182 5.41639 5.07754 5.18827 5.22877 4.96711C5.5331 4.52206 6.06106 3.74527 6.59922 2.95079C6.79296 2.66474 7.03252 2.31589 7.13163 2.17552C7.23071 2.03515 7.39784 1.79856 7.50306 1.64968ZM11.3961 6.69096C11.3309 6.76322 11.2535 6.87327 10.6725 7.72003C10.4857 7.99222 10.208 8.39588 10.0553 8.61704C9.90268 8.83821 9.64898 9.21403 9.49154 9.4522L9.45705 9.50437C9.01703 10.17 8.925 10.3092 8.95897 10.355C8.96795 10.3672 8.98575 10.3728 9.00825 10.3798C9.01044 10.3805 9.01268 10.3812 9.01495 10.3819C9.12406 10.4166 14.0142 10.3535 14.0738 10.3166C14.0968 10.3024 13.9612 10.0938 13.562 9.52953C13.4838 9.41895 13.3238 9.18928 13.2064 9.01916C13.089 8.84903 12.9818 8.69592 12.9682 8.67891C12.9546 8.6619 12.7915 8.43223 12.6057 8.16853C11.7957 7.01843 11.5227 6.64172 11.4921 6.63157C11.4742 6.62563 11.431 6.65236 11.3961 6.69096ZM8.96316 11.5141C8.97437 11.5029 9.69422 11.4867 10.5628 11.4782C13.0316 11.454 14.0799 11.4587 14.0917 11.4939C14.1086 11.5443 11.6533 15.2055 11.6026 15.2055C11.5595 15.2055 11.3381 14.9278 11.006 14.457C10.9243 14.3413 10.7774 14.1353 10.6796 13.9992C10.5818 13.8631 10.3209 13.4942 10.0999 13.1795C9.87888 12.8647 9.52814 12.3659 9.32042 12.0709C9.11273 11.7759 8.95196 11.5254 8.96316 11.5141Z" fill="url(#paint0_radial_6005_33182)"/>
<path fill-rule="evenodd" clip-rule="evenodd" d="M7.26691 0.137957C7.30886 0.110428 7.39515 0.0692878 7.45864 0.0465839C7.838 -0.0891134 8.24726 0.0762488 8.538 0.482629C8.69686 0.704688 9.50728 1.86571 9.87351 2.39597C10.0178 2.60485 10.2578 2.94869 10.4069 3.16001C11.0555 4.0798 11.654 4.93181 11.8888 5.26996C12.0281 5.47055 12.2334 5.76285 12.345 5.91952C12.577 6.24517 13.5697 7.65928 14.0975 8.41599C14.2933 8.69669 14.5577 9.07251 14.6852 9.25114C15.1244 9.86662 15.3712 10.2418 15.4535 10.419C15.5246 10.5721 15.5361 10.6373 15.5364 10.8905C15.5366 11.1545 15.527 11.2049 15.442 11.3854C15.3549 11.5705 15.0787 12.0132 14.6893 12.5918C14.6035 12.7194 14.4966 12.8794 14.4518 12.9475C14.3023 13.1746 12.9224 15.2313 12.667 15.6076C12.196 16.3015 11.5206 17.306 10.7224 18.4997C9.0086 21.0625 8.63788 21.6112 8.56974 21.6857C8.35122 21.9246 8.16371 22.0089 7.87238 21.9993C7.49139 21.9867 7.36602 21.8562 6.39369 20.4606C6.26205 20.2716 5.87656 19.7247 5.53705 19.2452C5.19754 18.7656 4.77531 18.1686 4.59873 17.9184C4.42219 17.6682 4.07496 17.1786 3.82712 16.8304C3.57931 16.4821 3.3531 16.162 3.32446 16.1189C3.29585 16.0759 3.18474 15.9193 3.07754 15.771C2.97038 15.6227 2.76782 15.3373 2.62742 15.1369C2.48701 14.9364 2.24395 14.5954 2.08729 14.3791C1.8417 14.04 1.35367 13.3537 1.00962 12.8637C0.0722939 11.5289 0.026738 11.4476 0.00362042 11.0695C-0.0204848 10.6745 0.0620782 10.496 0.67298 9.62232C0.833568 9.39266 1.06064 9.06555 1.17755 8.89543C1.2945 8.72531 1.56271 8.33557 1.77361 8.02934C1.98451 7.72312 2.28463 7.28466 2.44053 7.05499C2.59646 6.82533 2.94097 6.32423 3.20613 5.94145C3.47128 5.55867 3.86116 4.99114 4.07252 4.68028C4.54358 3.98741 5.09139 3.18578 5.46918 2.63653C5.62532 2.40949 5.76699 2.20209 5.78396 2.17564C5.82214 2.11619 6.47246 1.1631 6.71595 0.809763C6.94845 0.472391 7.17114 0.200842 7.26691 0.137957ZM7.73528 12.1046C7.67735 12.1769 7.52065 12.3961 7.38706 12.5918C7.25348 12.7874 7.02293 13.1215 6.87468 13.3341C6.00174 14.5864 4.87346 16.2908 4.87346 16.3571C4.87346 16.3928 5.13426 16.7887 5.36791 17.1078C5.4489 17.2184 5.58257 17.4075 5.66498 17.5281C5.80992 17.7401 5.98251 17.9871 6.27912 18.4069C6.35724 18.5175 6.45412 18.6567 6.49443 18.7162C6.53471 18.7758 6.727 19.0472 6.92175 19.3194C7.11648 19.5916 7.30821 19.8601 7.34781 19.9161C7.38737 19.9721 7.45451 20.0656 7.49694 20.1239C7.53938 20.1823 7.64355 20.3278 7.72843 20.4472C7.81331 20.5667 7.90581 20.6645 7.93399 20.6647C7.96405 20.6648 8.06103 20.553 8.1684 20.3943C8.26914 20.2454 8.45442 19.9739 8.58014 19.7909C8.70585 19.6078 8.87119 19.3614 8.94758 19.2431C9.02397 19.1248 9.24872 18.7874 9.44706 18.4933C10.5568 16.8473 10.924 16.2833 10.9131 16.2417C10.9064 16.2162 10.7622 16.0004 10.5926 15.7623C10.206 15.2195 9.51715 14.2425 9.13277 13.692C8.43464 12.6922 7.90587 11.9731 7.8688 11.9731C7.85327 11.9731 7.79318 12.0323 7.73528 12.1046ZM3.74848 11.5513C4.95287 11.5404 5.94183 11.5287 5.94619 11.5253C5.96578 11.5099 6.72907 11.5335 6.74555 11.5501C6.77691 11.5814 5.99785 12.7888 5.24383 13.8774C5.13349 14.0367 4.93905 14.3214 4.81173 14.51C4.33459 15.2168 4.19444 15.3923 4.19444 15.2828C4.19444 15.2658 4.17972 15.2519 4.16175 15.2519C4.14379 15.2519 4.13765 15.2658 4.14814 15.2828C4.18215 15.3379 4.087 15.3155 4.04984 15.2596C4.00567 15.1932 3.83409 14.9486 3.46616 14.4276C1.84704 12.1348 1.50166 11.6281 1.53512 11.5946C1.54805 11.5816 2.54405 11.5621 3.74848 11.5513ZM4.06607 6.69012C4.03792 6.71218 3.92771 6.85549 3.82116 7.0086C3.60082 7.32521 3.43884 7.55488 3.02162 8.14237C2.25846 9.21697 1.50197 10.363 1.52172 10.4146C1.5362 10.4524 1.80157 10.4578 3.33724 10.4519C6.17961 10.4408 6.69511 10.4299 6.71422 10.38C6.72833 10.3432 6.46848 9.93677 6.15644 9.50754C6.10437 9.4359 6.00511 9.2967 5.93588 9.19822C5.86668 9.09973 5.60973 8.73632 5.36488 8.39063C5.12007 8.04493 4.89892 7.73132 4.87346 7.6937C4.76673 7.53601 4.22867 6.78645 4.17527 6.72106C4.12604 6.6608 4.10953 6.6561 4.06607 6.69012ZM7.50306 1.64968C7.60824 1.50084 7.70895 1.36879 7.72682 1.35629C7.74466 1.3438 7.76247 1.33337 7.76636 1.3331C7.77827 1.33232 8.12254 1.78105 8.24448 1.95634C8.5755 2.4321 8.78943 2.73582 9.90762 4.31754C10.064 4.5387 10.3291 4.91888 10.4969 5.16241L10.8019 5.6052L10.7312 5.72642C10.6657 5.83888 9.4383 7.67579 9.0065 8.30773C8.90187 8.46084 8.68964 8.77402 8.53489 9.00369C8.22952 9.45693 7.91627 9.88586 7.86957 9.91478C7.83173 9.93823 7.34768 9.29238 6.58397 8.19947C6.46999 8.03636 6.02958 7.41241 5.83075 7.13232C5.64563 6.8716 5.39396 6.50784 5.21266 6.23902C5.15306 6.15064 5.03849 5.9859 4.95803 5.87291C4.87756 5.75992 4.81173 5.64754 4.81173 5.62317C4.81173 5.59882 4.84371 5.53173 4.88275 5.47408C4.92182 5.41639 5.07754 5.18827 5.22877 4.96711C5.5331 4.52206 6.06106 3.74527 6.59922 2.95079C6.79296 2.66474 7.03252 2.31589 7.13163 2.17552C7.23071 2.03515 7.39784 1.79856 7.50306 1.64968ZM11.3961 6.69096C11.3309 6.76322 11.2535 6.87327 10.6725 7.72003C10.4857 7.99222 10.208 8.39588 10.0553 8.61704C9.90268 8.83821 9.64898 9.21403 9.49154 9.4522L9.45705 9.50437C9.01703 10.17 8.925 10.3092 8.95897 10.355C8.96795 10.3672 8.98575 10.3728 9.00825 10.3798C9.01044 10.3805 9.01268 10.3812 9.01495 10.3819C9.12406 10.4166 14.0142 10.3535 14.0738 10.3166C14.0968 10.3024 13.9612 10.0938 13.562 9.52953C13.4838 9.41895 13.3238 9.18928 13.2064 9.01916C13.089 8.84903 12.9818 8.69592 12.9682 8.67891C12.9546 8.6619 12.7915 8.43223 12.6057 8.16853C11.7957 7.01843 11.5227 6.64172 11.4921 6.63157C11.4742 6.62563 11.431 6.65236 11.3961 6.69096ZM8.96316 11.5141C8.97437 11.5029 9.69422 11.4867 10.5628 11.4782C13.0316 11.454 14.0799 11.4587 14.0917 11.4939C14.1086 11.5443 11.6533 15.2055 11.6026 15.2055C11.5595 15.2055 11.3381 14.9278 11.006 14.457C10.9243 14.3413 10.7774 14.1353 10.6796 13.9992C10.5818 13.8631 10.3209 13.4942 10.0999 13.1795C9.87888 12.8647 9.52814 12.3659 9.32042 12.0709C9.11273 11.7759 8.95196 11.5254 8.96316 11.5141Z" fill="#EAA000" fill-opacity="0.3"/>
<defs>
<radialGradient id="paint0_radial_6005_33182" cx="0" cy="0" r="1" gradientUnits="userSpaceOnUse" gradientTransform="translate(17.6423 11) rotate(7.67748) scale(32.552 13.3644)">
<stop offset="0.00775993" stop-color="#AE9152"/>
<stop offset="1" stop-color="#795F26"/>
</radialGradient>
</defs>
</svg>
