<svg width="465" height="205" viewBox="0 0 465 205" fill="none" xmlns="http://www.w3.org/2000/svg">
<path fill-rule="evenodd" clip-rule="evenodd" d="M69.501 0.434077C68.9094 0.645636 68.1052 1.02899 67.7144 1.28551C66.822 1.87148 64.7469 4.40182 62.5804 7.54552C60.3115 10.8379 54.2518 19.7191 53.896 20.2731C53.7378 20.5195 52.4177 22.452 50.9628 24.5676C47.4425 29.6857 42.3379 37.1554 37.9485 43.6117C35.979 46.5083 32.346 51.7967 29.8753 55.3635C27.4045 58.9304 24.1943 63.5996 22.7413 65.7397C21.2886 67.8798 18.492 71.9654 16.5268 74.8189C14.5616 77.6723 12.0624 81.304 10.9727 82.8892C9.88323 84.4745 7.76734 87.5225 6.27095 89.6626C0.578456 97.8033 -0.190881 99.4669 0.0337357 103.147C0.249149 106.671 0.673648 107.428 9.40781 119.867C12.6137 124.433 17.1613 130.827 19.4497 133.987C20.9096 136.003 23.1744 139.181 24.4827 141.048C25.791 142.916 27.6785 145.575 28.6771 146.957C29.6759 148.339 30.7113 149.798 30.9779 150.199C31.2448 150.6 33.3526 153.584 35.6618 156.828C37.9712 160.073 41.2067 164.636 42.8518 166.967C44.4972 169.298 48.4316 174.862 51.5952 179.33C54.7588 183.798 58.3509 188.895 59.5776 190.655C68.6379 203.66 69.8061 204.876 73.3562 204.993C76.0709 205.083 77.8181 204.297 79.8543 202.071C80.4894 201.377 83.9437 196.264 99.9131 172.384C107.351 161.26 113.645 151.9 118.033 145.435C120.413 141.928 133.272 122.763 134.665 120.647C135.082 120.013 136.078 118.521 136.878 117.332C140.506 111.941 143.079 107.816 143.891 106.092C144.683 104.409 144.773 103.939 144.771 101.48C144.768 99.1202 144.661 98.5129 143.999 97.0861C143.232 95.4349 140.932 91.939 136.839 86.2038C135.652 84.5393 133.187 81.0374 131.363 78.4217C126.445 71.3705 117.195 58.1937 115.033 55.1592C113.993 53.6993 112.08 50.9756 110.782 49.1064C108.594 45.9555 103.017 38.0163 96.9729 29.4456C95.5841 27.4764 93.3477 24.2725 92.0032 22.3261C88.5905 17.385 81.0389 6.56641 79.5587 4.49723C76.8495 0.7105 73.0359 -0.830375 69.501 0.434077ZM71.9999 12.6382C71.8334 12.7546 70.895 13.9851 69.9148 15.372C68.9344 16.7593 67.377 18.9639 66.4538 20.2719C65.5303 21.5799 63.298 24.8305 61.4927 27.496C56.4781 34.8991 51.5584 42.1374 48.7226 46.2844C47.3134 48.3452 45.8624 50.4709 45.4983 51.0084C45.1345 51.5457 44.8366 52.1709 44.8366 52.3977C44.8366 52.6248 45.45 53.6719 46.1998 54.7248C46.9496 55.7777 48.0171 57.3128 48.5725 58.1363C50.2619 60.6413 52.607 64.0308 54.332 66.4603C56.1847 69.0702 60.2885 74.8843 61.3506 76.4041C68.467 86.5881 72.9775 92.6062 73.3301 92.3877C73.7652 92.1182 76.6841 88.1214 79.5296 83.898C80.9717 81.7579 82.9492 78.8396 83.9242 77.4129C87.9477 71.5244 99.3847 54.4078 99.9953 53.3598L100.654 52.2302L97.8119 48.1043C96.2488 45.8351 93.778 42.2924 92.321 40.2316C81.9015 25.4928 79.9081 22.6627 76.8236 18.2295C75.6873 16.5961 72.4794 12.4148 72.3683 12.422C72.3321 12.4246 72.1662 12.5218 71.9999 12.6382ZM275.848 32.0794C275.55 32.4394 275.955 33.2565 278.26 36.9481C281.757 42.5504 282.056 42.9698 282.56 42.9698C282.788 42.9698 284.053 41.5108 285.372 39.7272C290.338 33.0118 290.58 32.5192 289.064 32.2154C288.62 32.1264 285.545 31.9618 282.231 31.8503C277.055 31.6756 276.156 31.7079 275.848 32.0794ZM181.351 41.7209C181.246 41.8264 181.16 52.8222 181.16 66.1559C181.16 87.2977 181.215 90.4783 181.593 91.0195C182.119 91.7715 183.773 92.1442 188.35 92.5411C201.69 93.6986 209.523 91.7545 213.639 86.2655C215.2 84.1831 215.898 82.1205 216.23 78.6033C216.791 72.6773 215.592 68.5442 212.368 65.2909C208.567 61.4544 205.022 60.3225 195.827 60.0112L190.507 59.8311L190.427 54.9312C190.38 52.038 190.464 49.8544 190.632 49.599C190.875 49.2298 192.39 49.16 201.004 49.1211C208.408 49.088 211.202 48.9831 211.51 48.7274C211.925 48.3818 212.877 45.505 213.233 43.5186C213.606 41.4367 214.356 41.5286 197.005 41.5286C188.501 41.5286 181.457 41.6151 181.351 41.7209ZM236.637 42.9505C233.93 43.1295 233.386 43.4033 232.975 44.7943C232.397 46.7525 231.458 50.3089 229.766 56.9488C228.796 60.7534 227.701 64.839 227.332 66.0279C226.963 67.2169 226.305 69.4867 225.869 71.0719C224.107 77.4763 223.412 80.0283 223.312 80.4465C223.254 80.6883 222.877 81.9854 222.473 83.3288C221.236 87.447 220.238 91.7217 220.33 92.5131L220.417 93.2654H224.731H229.045L229.525 91.6802C229.789 90.8083 230.548 87.7603 231.21 84.9068C231.873 82.0534 232.498 79.6277 232.6 79.5161C232.797 79.3014 247.831 79.1379 248.041 79.3484C248.109 79.4161 248.761 81.7323 249.491 84.4952C251.184 90.9051 251.608 92.3169 251.972 92.761C252.182 93.0175 253.411 93.1213 256.238 93.1213C259.465 93.1213 260.294 93.0363 260.661 92.6685C260.909 92.4192 261.113 92.1696 261.113 92.1137C261.113 92.0577 260.39 89.6349 259.506 86.7298C258.623 83.8248 257.193 79.1135 256.329 76.26C255.465 73.4066 254.125 69.0615 253.351 66.6044C251.832 61.7801 250.763 58.2429 249.02 52.2723C247.405 46.7421 246.469 44.2446 245.769 43.5978C245.257 43.1251 244.634 43.007 242.131 42.9072C240.47 42.8409 237.998 42.8605 236.637 42.9505ZM267.728 42.8735C266.133 43.2096 266.186 42.7107 266.393 55.5074C266.498 62.0072 266.659 72.4482 266.752 78.7099C266.845 84.9717 267.037 90.5607 267.179 91.1299C267.659 93.0495 268.155 93.2539 272.597 93.3585C277.254 93.468 278.298 93.2605 279.103 92.0649C279.427 91.583 281.877 86.0788 284.547 79.8332C287.217 73.5879 289.971 67.2457 290.667 65.7397C291.363 64.2337 292.106 62.6125 292.318 62.1369C294.249 57.8005 295.1 56.1968 295.412 56.3003C296.011 56.4986 296.174 59.7158 296.423 76.3666C296.651 91.5225 296.69 92.346 297.205 92.7235C297.854 93.1988 301.855 93.2654 303.429 92.827C304.466 92.5385 304.476 92.5195 304.678 90.6302C304.79 89.5819 304.807 87.1518 304.715 85.2302C304.623 83.3086 304.48 75.77 304.398 68.4779C304.317 61.1857 304.168 52.7643 304.069 49.7633C303.896 44.5614 303.857 44.276 303.221 43.6385C302.632 43.049 302.254 42.9646 300.024 42.9263C294.149 42.8248 292.655 42.9277 291.896 43.4863C291.095 44.076 289.691 46.7075 288.167 50.4743C287.625 51.816 286.622 54.1253 285.938 55.6062C285.255 57.0874 284.696 58.3703 284.696 58.4574C284.696 58.5441 283.838 60.575 282.789 62.9701C280.774 67.5714 280.584 67.9994 278.239 73.2336C277.422 75.0567 276.568 76.9699 276.341 77.485C275.208 80.0545 274.991 78.1701 274.772 63.8662C274.548 49.1923 274.336 43.9353 273.946 43.4013C273.693 43.0551 272.969 42.9136 271.028 42.8314C269.609 42.7712 268.123 42.7902 267.728 42.8735ZM458.12 43.1877C457.092 43.228 455.94 43.3327 455.56 43.42L454.871 43.5788L455.037 49.9754C455.128 53.4938 455.422 62.2334 455.69 69.397C455.958 76.5606 456.095 82.7523 455.994 83.1561C455.641 84.5638 455 84.7108 448.319 84.9178C442.901 85.0855 442.057 85.0527 441.664 84.6587C441.147 84.141 441.111 83.4101 440.425 59.7273C440.172 51.0082 439.864 44.406 439.696 44.091C439.433 43.5987 439.037 43.5462 435.568 43.5462C432.411 43.5462 431.664 43.6275 431.351 44.0045C430.966 44.4703 431.059 49.4733 431.955 76.3932C432.139 81.9196 432.133 84.6921 431.937 84.8892C431.758 85.0685 429.265 85.1844 425.5 85.1884C419.915 85.1945 419.301 85.1463 418.765 84.6607C417.709 83.7038 417.656 82.9745 417.289 64.2986C416.944 46.7816 416.838 44.7234 416.245 44.1227C415.903 43.7768 415.144 43.7071 412.451 43.7745C410.599 43.8209 408.873 43.9218 408.616 43.9988C407.974 44.191 407.788 45.6739 407.932 49.4549C407.999 51.1987 408.194 59.1105 408.367 67.0367C408.539 74.963 408.812 82.5506 408.972 83.898C409.511 88.4166 411.361 91.1524 414.723 92.4013C416.221 92.9576 416.932 92.9757 435.565 92.9351C448.409 92.9071 455.569 92.7829 456.991 92.563C460.651 91.9975 462.814 90.5509 464.19 87.7482C464.788 86.5293 464.891 85.8438 464.986 82.4569C465.08 79.0751 464.685 65.5446 464.304 59.1105C464.233 57.9216 464.093 54.2251 463.992 50.896C463.885 47.3465 463.672 44.5452 463.479 44.1227C463.199 43.514 462.902 43.3796 461.568 43.258C460.7 43.1787 459.148 43.147 458.12 43.1877ZM327.842 43.5292C327.225 43.931 327.454 46.0774 328.471 49.4111C328.69 50.1293 329.05 50.6118 329.492 50.7802C329.867 50.9231 332.34 51.0401 334.987 51.0401C338.348 51.0401 339.905 51.1445 340.146 51.386C340.407 51.6483 340.491 56.5519 340.491 71.6925C340.491 85.8314 340.585 91.86 340.813 92.3627C341.235 93.2896 341.742 93.4009 345.561 93.4055C348.192 93.4089 348.831 93.3248 349.156 92.9322C349.482 92.5373 349.55 88.8855 349.55 71.8196V51.1843L355.084 51.1059C361.538 51.0148 361.142 51.2232 361.896 47.5215C362.522 44.4498 362.492 43.8748 361.701 43.7137C360.319 43.4318 328.26 43.2574 327.842 43.5292ZM376.218 44.0299C375.348 44.2092 374.747 45.1891 374.073 47.5241C373.113 50.8519 372.465 53.1272 371.842 55.3635C371.51 56.5525 370.869 58.7574 370.417 60.2634C368.516 66.5966 361.667 90.7135 361.355 92.1739C361.182 92.9832 361.241 93.1201 361.825 93.2608C363.553 93.677 369.576 93.5124 370.233 93.0311C370.599 92.763 371.119 91.0599 372.018 87.1945C372.716 84.1926 373.424 81.3147 373.592 80.7996L373.897 79.8628L376.679 79.8438C383.519 79.7968 388.965 79.9055 389.144 80.092C389.251 80.2038 390.069 83.1486 390.961 86.6362C391.853 90.1237 392.747 93.1452 392.948 93.351C393.347 93.7597 400.515 93.9621 401.129 93.5816C401.662 93.2516 401.55 92.6492 399.861 86.7506C398.98 83.6758 398.002 80.252 397.688 79.1423C397.374 78.0326 396.792 76.0871 396.395 74.8189C395.997 73.5507 395.363 71.3457 394.985 69.919C394.606 68.4923 393.703 65.2497 392.976 62.7133C391.512 57.6002 390.877 55.3607 390.522 54.0665C390.298 53.2485 389.914 51.9426 388.972 48.8064C388.16 46.1028 387.871 45.3655 387.354 44.6772C386.836 43.9881 386.76 43.978 381.85 43.9368C379.112 43.914 376.578 43.9558 376.218 44.0299ZM239.343 52.2527C239.184 52.4576 238.705 53.8576 238.279 55.3635C237.341 58.6836 234.366 70.7001 234.366 71.1688C234.366 71.4126 235.903 71.5043 239.983 71.5043C244.703 71.5043 245.627 71.4354 245.765 71.0731C245.909 70.6987 242.476 58.1098 241.01 53.6342C240.491 52.0495 239.89 51.5512 239.343 52.2527ZM380.217 54.715C379.529 57.0958 377.301 65.5008 376.4 69.1108C376.036 70.5687 375.843 71.8657 375.97 71.9931C376.097 72.1205 378.584 72.2681 381.497 72.3208C386.353 72.4084 386.811 72.3739 386.99 71.9061C387.197 71.3645 386.628 68.9506 384.583 61.7045C382.496 54.3072 381.934 52.7695 381.319 52.7695C380.9 52.7695 380.653 53.205 380.217 54.715ZM106.191 62.3476C105.583 63.0209 104.862 64.0464 99.448 71.9366C97.7078 74.473 95.1199 78.2344 93.6974 80.2952C92.275 82.356 89.9109 85.858 88.4438 88.0773C82.8284 96.5725 82.919 96.3961 84.003 96.7408C85.0196 97.0642 130.587 96.4757 131.142 96.1321C131.357 95.9993 130.093 94.0554 126.373 88.7979C125.644 87.7675 124.153 85.6274 123.06 84.0421C121.966 82.4569 120.967 81.0302 120.84 80.8716C120.713 80.7131 119.193 78.573 117.463 76.1159C109.914 65.399 107.371 61.8887 107.086 61.7942C106.918 61.7388 106.516 61.9879 106.191 62.3476ZM37.8884 62.3398C37.6261 62.5453 36.5991 63.8807 35.6063 65.3074C33.5531 68.2577 32.0438 70.3978 28.156 75.8721C21.0447 85.8854 13.9956 96.5645 14.1797 97.0452C14.3146 97.3971 16.7874 97.4479 31.097 97.3925C57.5828 97.2896 62.3863 97.1876 62.5643 96.7227C62.6957 96.3797 60.2744 92.5927 57.3668 88.5929C56.8816 87.9254 55.9567 86.6284 55.3116 85.7107C54.6668 84.793 52.2725 81.4066 49.9909 78.1854C47.7097 74.9642 45.649 72.0418 45.4118 71.6913C44.4172 70.222 39.4035 63.2373 38.9059 62.628C38.4472 62.0666 38.2933 62.0227 37.8884 62.3398ZM192.902 68.0455C191.689 68.1248 190.654 68.2545 190.601 68.3338C190.549 68.413 190.571 72.1095 190.65 76.5482L190.794 84.6186L195.073 84.6984C197.425 84.7425 200.079 84.6437 200.968 84.4791C203.02 84.0992 204.917 82.929 206.012 81.368C206.768 80.29 206.881 79.8551 206.988 77.6138C207.054 76.2197 206.96 74.3641 206.779 73.4904C205.887 69.1832 201.548 67.4806 192.902 68.0455ZM98.4262 106.956C90.3325 107.035 83.6248 107.186 83.5204 107.291C83.416 107.396 84.9141 109.73 86.8493 112.479C88.7849 115.227 92.0532 119.876 94.1127 122.809C96.1722 125.741 98.6031 129.179 99.5148 130.447C100.426 131.715 101.795 133.635 102.556 134.713C105.65 139.1 107.713 141.688 108.115 141.688C108.587 141.688 131.466 107.572 131.309 107.103C131.199 106.774 121.431 106.731 98.4262 106.956ZM55.4076 107.395C55.3671 107.427 46.1518 107.536 34.929 107.637C23.7059 107.738 14.425 107.919 14.3045 108.04C13.9928 108.353 17.211 113.074 32.2983 134.439C35.7268 139.294 37.3256 141.573 37.7371 142.192C38.0834 142.712 38.9701 142.922 38.6531 142.408C38.5553 142.25 38.6126 142.12 38.78 142.12C38.9473 142.12 39.0845 142.25 39.0845 142.408C39.0845 143.428 40.3905 141.793 44.8366 135.207C46.0229 133.449 47.8348 130.797 48.863 129.313C55.8891 119.168 63.1484 107.918 62.8562 107.625C62.7026 107.472 55.5903 107.251 55.4076 107.395ZM72.0787 112.793C71.5389 113.467 70.0787 115.509 68.834 117.332C67.5893 119.155 65.4409 122.268 64.0595 124.25C55.9253 135.919 45.4118 151.801 45.4118 152.419C45.4118 152.751 47.842 156.44 50.0191 159.414C50.7738 160.444 52.0194 162.206 52.7873 163.33C54.1379 165.306 55.7462 167.607 58.51 171.519C59.2379 172.549 60.1407 173.847 60.5163 174.401C60.8916 174.956 62.6834 177.485 64.4981 180.022C66.3126 182.558 68.0992 185.06 68.4682 185.582C68.8369 186.104 69.4624 186.975 69.8579 187.519C70.2533 188.062 71.224 189.418 72.0149 190.531C72.8058 191.644 73.6677 192.556 73.9303 192.557C74.2104 192.559 75.1141 191.517 76.1146 190.038C77.0534 188.651 78.7798 186.12 79.9512 184.415C81.1226 182.709 82.6633 180.413 83.3751 179.311C84.087 178.209 86.1813 175.065 88.0294 172.324C98.3701 156.986 101.792 151.731 101.69 151.343C101.628 151.105 100.284 149.095 98.7034 146.876C95.1018 141.818 88.6825 132.714 85.1007 127.585C78.5955 118.269 73.6683 111.568 73.3229 111.568C73.1782 111.568 72.6183 112.119 72.0787 112.793ZM231.634 112.064C228.189 112.148 222.224 112.663 220.338 113.039C219.3 113.246 218.686 113.546 218.397 113.988C218.027 114.553 218.013 117.567 218.283 137.961C218.453 150.792 218.716 161.773 218.868 162.368L219.145 163.449H223.066C226.291 163.449 227.079 163.365 227.506 162.977C227.994 162.535 228.015 161.952 227.842 153.466C227.686 145.787 227.719 144.426 228.064 144.429C231.922 144.466 238.47 144.025 240.593 143.586C247.459 142.165 251.763 138.021 252.967 131.671C253.538 128.661 253.327 124.749 252.456 122.189C251.726 120.044 249.787 117.172 248.249 115.958C245.783 114.012 241.654 112.508 238.118 112.268C236.925 112.188 235.559 112.094 235.085 112.061C234.61 112.027 233.057 112.029 231.634 112.064ZM257.861 112.639C257.259 112.704 256.702 112.926 256.623 113.131C256.457 113.567 257.379 117.24 259.089 122.953C259.754 125.172 260.926 129.128 261.693 131.744C266.419 147.847 266.534 148.171 267.892 149.26C268.432 149.692 269.684 150.308 270.673 150.629C272.29 151.153 272.465 151.285 272.394 151.926C272.254 153.196 271.061 155.216 270.058 155.882C269.131 156.498 268.801 156.531 263.659 156.531C258.691 156.531 258.236 156.574 258.226 157.036C258.219 157.313 258.149 158.513 258.069 159.702C257.989 160.891 258.046 162.045 258.196 162.266C258.899 163.311 268.284 163.818 271.75 163C275.072 162.215 276.787 160.841 278.346 157.713C279.505 155.388 279.738 154.602 284.862 135.779C289.819 117.572 290.722 114.123 290.73 113.389C290.739 112.473 290.02 112.356 285.819 112.589C282.811 112.756 282.042 112.886 281.849 113.263C281.555 113.838 280.526 117.976 278.794 125.547C277.631 130.636 275.721 138.503 274.895 141.616C274.665 142.483 274.472 142.696 273.92 142.696C273.322 142.696 273.155 142.444 272.635 140.751C271.984 138.633 269.347 128.641 267.443 121.079C265.966 115.213 265.497 113.54 265.205 113.094C264.967 112.731 259.915 112.418 257.861 112.639ZM304.541 112.899C301.452 113.508 299.236 114.88 298.044 116.917C296.518 119.528 296.497 119.858 296.492 141.869C296.488 160.456 296.529 162.26 296.963 162.621C297.621 163.168 304.63 163.186 305.173 162.642C305.472 162.343 305.561 158.231 305.617 142.33L305.688 122.393L306.41 121.668L307.133 120.944L315.078 120.984C322.453 121.021 323.076 121.064 323.769 121.582C324.179 121.889 324.602 122.453 324.709 122.835C324.816 123.217 324.916 132.291 324.931 142.999C324.953 157.725 325.044 162.553 325.305 162.815C325.539 163.049 326.876 163.16 329.441 163.16C332.615 163.16 333.294 163.083 333.625 162.684C333.95 162.292 334.029 158.731 334.075 142.58C334.109 130.445 334.019 122.293 333.84 121.223C333.091 116.758 330.671 114.158 326.445 113.28C325.039 112.988 305.786 112.652 304.541 112.899ZM189.992 113.288C183.326 113.416 181.953 113.513 181.714 113.874C181.532 114.148 181.483 117.043 181.58 121.8C181.663 125.922 181.808 136.868 181.902 146.126C181.997 155.384 182.135 163.12 182.212 163.319C182.428 163.886 183.346 164.017 187.127 164.021C190.314 164.025 190.707 163.968 191.248 163.426C191.844 162.829 191.845 162.784 191.674 144.619C191.58 134.605 191.435 125.357 191.352 124.069C191.232 122.204 191.285 121.695 191.612 121.569C191.838 121.482 195.888 121.319 200.612 121.205C205.336 121.092 209.474 120.898 209.807 120.774C210.467 120.528 211.178 118.247 211.53 115.243C211.697 113.819 211.653 113.61 211.125 113.327C210.511 112.997 205.631 112.988 189.992 113.288ZM354.871 113.305C349.242 113.655 346.509 115.223 345.087 118.918C344.5 120.445 344.414 121.22 344.351 125.547C344.269 131.145 344.997 161.819 345.234 162.8C345.387 163.433 345.486 163.449 349.248 163.449C352.47 163.449 353.183 163.369 353.586 162.967C354.028 162.523 354.048 161.492 353.833 150.212C353.704 143.463 353.593 134.453 353.587 130.191L353.577 122.441L354.299 121.899C354.945 121.415 355.798 121.338 362.357 121.174C370.502 120.97 371.651 121.121 372.159 122.461C372.491 123.337 372.59 126.094 373.02 146.587C373.196 154.989 373.45 162.072 373.584 162.327C374.045 163.199 381.102 163.216 381.97 162.347C382.405 161.912 382.407 161.608 382.118 146.155C381.719 124.85 381.499 121.171 380.462 118.394C379.395 115.536 376.843 113.809 372.935 113.3C370.559 112.991 359.868 112.994 354.871 113.305ZM231.202 119.825C230.49 119.88 229.358 119.998 228.686 120.088L227.463 120.25L227.492 126.789C227.507 130.386 227.605 134.042 227.708 134.914L227.895 136.499L232.784 136.484C237.164 136.47 237.845 136.4 239.325 135.815C241.188 135.079 242.437 133.963 243.353 132.215C243.855 131.258 243.977 130.54 243.971 128.573C243.962 125.301 243.52 123.898 242.034 122.408C240.121 120.491 235.829 119.468 231.202 119.825Z" fill="url(#paint0_radial_913_1332)"/>
<path fill-rule="evenodd" clip-rule="evenodd" d="M69.501 0.434077C68.9094 0.645636 68.1052 1.02899 67.7144 1.28551C66.822 1.87148 64.7469 4.40182 62.5804 7.54552C60.3115 10.8379 54.2518 19.7191 53.896 20.2731C53.7378 20.5195 52.4177 22.452 50.9628 24.5676C47.4425 29.6857 42.3379 37.1554 37.9485 43.6117C35.979 46.5083 32.346 51.7967 29.8753 55.3635C27.4045 58.9304 24.1943 63.5996 22.7413 65.7397C21.2886 67.8798 18.492 71.9654 16.5268 74.8189C14.5616 77.6723 12.0624 81.304 10.9727 82.8892C9.88323 84.4745 7.76734 87.5225 6.27095 89.6626C0.578456 97.8033 -0.190881 99.4669 0.0337357 103.147C0.249149 106.671 0.673648 107.428 9.40781 119.867C12.6137 124.433 17.1613 130.827 19.4497 133.987C20.9096 136.003 23.1744 139.181 24.4827 141.048C25.791 142.916 27.6785 145.575 28.6771 146.957C29.6759 148.339 30.7113 149.798 30.9779 150.199C31.2448 150.6 33.3526 153.584 35.6618 156.828C37.9712 160.073 41.2067 164.636 42.8518 166.967C44.4972 169.298 48.4316 174.862 51.5952 179.33C54.7588 183.798 58.3509 188.895 59.5776 190.655C68.6379 203.66 69.8061 204.876 73.3562 204.993C76.0709 205.083 77.8181 204.297 79.8543 202.071C80.4894 201.377 83.9437 196.264 99.9131 172.384C107.351 161.26 113.645 151.9 118.033 145.435C120.413 141.928 133.272 122.763 134.665 120.647C135.082 120.013 136.078 118.521 136.878 117.332C140.506 111.941 143.079 107.816 143.891 106.092C144.683 104.409 144.773 103.939 144.771 101.48C144.768 99.1202 144.661 98.5129 143.999 97.0861C143.232 95.4349 140.932 91.939 136.839 86.2038C135.652 84.5393 133.187 81.0374 131.363 78.4217C126.445 71.3705 117.195 58.1937 115.033 55.1592C113.993 53.6993 112.08 50.9756 110.782 49.1064C108.594 45.9555 103.017 38.0163 96.9729 29.4456C95.5841 27.4764 93.3477 24.2725 92.0032 22.3261C88.5905 17.385 81.0389 6.56641 79.5587 4.49723C76.8495 0.7105 73.0359 -0.830375 69.501 0.434077ZM71.9999 12.6382C71.8334 12.7546 70.895 13.9851 69.9148 15.372C68.9344 16.7593 67.377 18.9639 66.4538 20.2719C65.5303 21.5799 63.298 24.8305 61.4927 27.496C56.4781 34.8991 51.5584 42.1374 48.7226 46.2844C47.3134 48.3452 45.8624 50.4709 45.4983 51.0084C45.1345 51.5457 44.8366 52.1709 44.8366 52.3977C44.8366 52.6248 45.45 53.6719 46.1998 54.7248C46.9496 55.7777 48.0171 57.3128 48.5725 58.1363C50.2619 60.6413 52.607 64.0308 54.332 66.4603C56.1847 69.0702 60.2885 74.8843 61.3506 76.4041C68.467 86.5881 72.9775 92.6062 73.3301 92.3877C73.7652 92.1182 76.6841 88.1214 79.5296 83.898C80.9717 81.7579 82.9492 78.8396 83.9242 77.4129C87.9477 71.5244 99.3847 54.4078 99.9953 53.3598L100.654 52.2302L97.8119 48.1043C96.2488 45.8351 93.778 42.2924 92.321 40.2316C81.9015 25.4928 79.9081 22.6627 76.8236 18.2295C75.6873 16.5961 72.4794 12.4148 72.3683 12.422C72.3321 12.4246 72.1662 12.5218 71.9999 12.6382ZM275.848 32.0794C275.55 32.4394 275.955 33.2565 278.26 36.9481C281.757 42.5504 282.056 42.9698 282.56 42.9698C282.788 42.9698 284.053 41.5108 285.372 39.7272C290.338 33.0118 290.58 32.5192 289.064 32.2154C288.62 32.1264 285.545 31.9618 282.231 31.8503C277.055 31.6756 276.156 31.7079 275.848 32.0794ZM181.351 41.7209C181.246 41.8264 181.16 52.8222 181.16 66.1559C181.16 87.2977 181.215 90.4783 181.593 91.0195C182.119 91.7715 183.773 92.1442 188.35 92.5411C201.69 93.6986 209.523 91.7545 213.639 86.2655C215.2 84.1831 215.898 82.1205 216.23 78.6033C216.791 72.6773 215.592 68.5442 212.368 65.2909C208.567 61.4544 205.022 60.3225 195.827 60.0112L190.507 59.8311L190.427 54.9312C190.38 52.038 190.464 49.8544 190.632 49.599C190.875 49.2298 192.39 49.16 201.004 49.1211C208.408 49.088 211.202 48.9831 211.51 48.7274C211.925 48.3818 212.877 45.505 213.233 43.5186C213.606 41.4367 214.356 41.5286 197.005 41.5286C188.501 41.5286 181.457 41.6151 181.351 41.7209ZM236.637 42.9505C233.93 43.1295 233.386 43.4033 232.975 44.7943C232.397 46.7525 231.458 50.3089 229.766 56.9488C228.796 60.7534 227.701 64.839 227.332 66.0279C226.963 67.2169 226.305 69.4867 225.869 71.0719C224.107 77.4763 223.412 80.0283 223.312 80.4465C223.254 80.6883 222.877 81.9854 222.473 83.3288C221.236 87.447 220.238 91.7217 220.33 92.5131L220.417 93.2654H224.731H229.045L229.525 91.6802C229.789 90.8083 230.548 87.7603 231.21 84.9068C231.873 82.0534 232.498 79.6277 232.6 79.5161C232.797 79.3014 247.831 79.1379 248.041 79.3484C248.109 79.4161 248.761 81.7323 249.491 84.4952C251.184 90.9051 251.608 92.3169 251.972 92.761C252.182 93.0175 253.411 93.1213 256.238 93.1213C259.465 93.1213 260.294 93.0363 260.661 92.6685C260.909 92.4192 261.113 92.1696 261.113 92.1137C261.113 92.0577 260.39 89.6349 259.506 86.7298C258.623 83.8248 257.193 79.1135 256.329 76.26C255.465 73.4066 254.125 69.0615 253.351 66.6044C251.832 61.7801 250.763 58.2429 249.02 52.2723C247.405 46.7421 246.469 44.2446 245.769 43.5978C245.257 43.1251 244.634 43.007 242.131 42.9072C240.47 42.8409 237.998 42.8605 236.637 42.9505ZM267.728 42.8735C266.133 43.2096 266.186 42.7107 266.393 55.5074C266.498 62.0072 266.659 72.4482 266.752 78.7099C266.845 84.9717 267.037 90.5607 267.179 91.1299C267.659 93.0495 268.155 93.2539 272.597 93.3585C277.254 93.468 278.298 93.2605 279.103 92.0649C279.427 91.583 281.877 86.0788 284.547 79.8332C287.217 73.5879 289.971 67.2457 290.667 65.7397C291.363 64.2337 292.106 62.6125 292.318 62.1369C294.249 57.8005 295.1 56.1968 295.412 56.3003C296.011 56.4986 296.174 59.7158 296.423 76.3666C296.651 91.5225 296.69 92.346 297.205 92.7235C297.854 93.1988 301.855 93.2654 303.429 92.827C304.466 92.5385 304.476 92.5195 304.678 90.6302C304.79 89.5819 304.807 87.1518 304.715 85.2302C304.623 83.3086 304.48 75.77 304.398 68.4779C304.317 61.1857 304.168 52.7643 304.069 49.7633C303.896 44.5614 303.857 44.276 303.221 43.6385C302.632 43.049 302.254 42.9646 300.024 42.9263C294.149 42.8248 292.655 42.9277 291.896 43.4863C291.095 44.076 289.691 46.7075 288.167 50.4743C287.625 51.816 286.622 54.1253 285.938 55.6062C285.255 57.0874 284.696 58.3703 284.696 58.4574C284.696 58.5441 283.838 60.575 282.789 62.9701C280.774 67.5714 280.584 67.9994 278.239 73.2336C277.422 75.0567 276.568 76.9699 276.341 77.485C275.208 80.0545 274.991 78.1701 274.772 63.8662C274.548 49.1923 274.336 43.9353 273.946 43.4013C273.693 43.0551 272.969 42.9136 271.028 42.8314C269.609 42.7712 268.123 42.7902 267.728 42.8735ZM458.12 43.1877C457.092 43.228 455.94 43.3327 455.56 43.42L454.871 43.5788L455.037 49.9754C455.128 53.4938 455.422 62.2334 455.69 69.397C455.958 76.5606 456.095 82.7523 455.994 83.1561C455.641 84.5638 455 84.7108 448.319 84.9178C442.901 85.0855 442.057 85.0527 441.664 84.6587C441.147 84.141 441.111 83.4101 440.425 59.7273C440.172 51.0082 439.864 44.406 439.696 44.091C439.433 43.5987 439.037 43.5462 435.568 43.5462C432.411 43.5462 431.664 43.6275 431.351 44.0045C430.966 44.4703 431.059 49.4733 431.955 76.3932C432.139 81.9196 432.133 84.6921 431.937 84.8892C431.758 85.0685 429.265 85.1844 425.5 85.1884C419.915 85.1945 419.301 85.1463 418.765 84.6607C417.709 83.7038 417.656 82.9745 417.289 64.2986C416.944 46.7816 416.838 44.7234 416.245 44.1227C415.903 43.7768 415.144 43.7071 412.451 43.7745C410.599 43.8209 408.873 43.9218 408.616 43.9988C407.974 44.191 407.788 45.6739 407.932 49.4549C407.999 51.1987 408.194 59.1105 408.367 67.0367C408.539 74.963 408.812 82.5506 408.972 83.898C409.511 88.4166 411.361 91.1524 414.723 92.4013C416.221 92.9576 416.932 92.9757 435.565 92.9351C448.409 92.9071 455.569 92.7829 456.991 92.563C460.651 91.9975 462.814 90.5509 464.19 87.7482C464.788 86.5293 464.891 85.8438 464.986 82.4569C465.08 79.0751 464.685 65.5446 464.304 59.1105C464.233 57.9216 464.093 54.2251 463.992 50.896C463.885 47.3465 463.672 44.5452 463.479 44.1227C463.199 43.514 462.902 43.3796 461.568 43.258C460.7 43.1787 459.148 43.147 458.12 43.1877ZM327.842 43.5292C327.225 43.931 327.454 46.0774 328.471 49.4111C328.69 50.1293 329.05 50.6118 329.492 50.7802C329.867 50.9231 332.34 51.0401 334.987 51.0401C338.348 51.0401 339.905 51.1445 340.146 51.386C340.407 51.6483 340.491 56.5519 340.491 71.6925C340.491 85.8314 340.585 91.86 340.813 92.3627C341.235 93.2896 341.742 93.4009 345.561 93.4055C348.192 93.4089 348.831 93.3248 349.156 92.9322C349.482 92.5373 349.55 88.8855 349.55 71.8196V51.1843L355.084 51.1059C361.538 51.0148 361.142 51.2232 361.896 47.5215C362.522 44.4498 362.492 43.8748 361.701 43.7137C360.319 43.4318 328.26 43.2574 327.842 43.5292ZM376.218 44.0299C375.348 44.2092 374.747 45.1891 374.073 47.5241C373.113 50.8519 372.465 53.1272 371.842 55.3635C371.51 56.5525 370.869 58.7574 370.417 60.2634C368.516 66.5966 361.667 90.7135 361.355 92.1739C361.182 92.9832 361.241 93.1201 361.825 93.2608C363.553 93.677 369.576 93.5124 370.233 93.0311C370.599 92.763 371.119 91.0599 372.018 87.1945C372.716 84.1926 373.424 81.3147 373.592 80.7996L373.897 79.8628L376.679 79.8438C383.519 79.7968 388.965 79.9055 389.144 80.092C389.251 80.2038 390.069 83.1486 390.961 86.6362C391.853 90.1237 392.747 93.1452 392.948 93.351C393.347 93.7597 400.515 93.9621 401.129 93.5816C401.662 93.2516 401.55 92.6492 399.861 86.7506C398.98 83.6758 398.002 80.252 397.688 79.1423C397.374 78.0326 396.792 76.0871 396.395 74.8189C395.997 73.5507 395.363 71.3457 394.985 69.919C394.606 68.4923 393.703 65.2497 392.976 62.7133C391.512 57.6002 390.877 55.3607 390.522 54.0665C390.298 53.2485 389.914 51.9426 388.972 48.8064C388.16 46.1028 387.871 45.3655 387.354 44.6772C386.836 43.9881 386.76 43.978 381.85 43.9368C379.112 43.914 376.578 43.9558 376.218 44.0299ZM239.343 52.2527C239.184 52.4576 238.705 53.8576 238.279 55.3635C237.341 58.6836 234.366 70.7001 234.366 71.1688C234.366 71.4126 235.903 71.5043 239.983 71.5043C244.703 71.5043 245.627 71.4354 245.765 71.0731C245.909 70.6987 242.476 58.1098 241.01 53.6342C240.491 52.0495 239.89 51.5512 239.343 52.2527ZM380.217 54.715C379.529 57.0958 377.301 65.5008 376.4 69.1108C376.036 70.5687 375.843 71.8657 375.97 71.9931C376.097 72.1205 378.584 72.2681 381.497 72.3208C386.353 72.4084 386.811 72.3739 386.99 71.9061C387.197 71.3645 386.628 68.9506 384.583 61.7045C382.496 54.3072 381.934 52.7695 381.319 52.7695C380.9 52.7695 380.653 53.205 380.217 54.715ZM106.191 62.3476C105.583 63.0209 104.862 64.0464 99.448 71.9366C97.7078 74.473 95.1199 78.2344 93.6974 80.2952C92.275 82.356 89.9109 85.858 88.4438 88.0773C82.8284 96.5725 82.919 96.3961 84.003 96.7408C85.0196 97.0642 130.587 96.4757 131.142 96.1321C131.357 95.9993 130.093 94.0554 126.373 88.7979C125.644 87.7675 124.153 85.6274 123.06 84.0421C121.966 82.4569 120.967 81.0302 120.84 80.8716C120.713 80.7131 119.193 78.573 117.463 76.1159C109.914 65.399 107.371 61.8887 107.086 61.7942C106.918 61.7388 106.516 61.9879 106.191 62.3476ZM37.8884 62.3398C37.6261 62.5453 36.5991 63.8807 35.6063 65.3074C33.5531 68.2577 32.0438 70.3978 28.156 75.8721C21.0447 85.8854 13.9956 96.5645 14.1797 97.0452C14.3146 97.3971 16.7874 97.4479 31.097 97.3925C57.5828 97.2896 62.3863 97.1876 62.5643 96.7227C62.6957 96.3797 60.2744 92.5927 57.3668 88.5929C56.8816 87.9254 55.9567 86.6284 55.3116 85.7107C54.6668 84.793 52.2725 81.4066 49.9909 78.1854C47.7097 74.9642 45.649 72.0418 45.4118 71.6913C44.4172 70.222 39.4035 63.2373 38.9059 62.628C38.4472 62.0666 38.2933 62.0227 37.8884 62.3398ZM192.902 68.0455C191.689 68.1248 190.654 68.2545 190.601 68.3338C190.549 68.413 190.571 72.1095 190.65 76.5482L190.794 84.6186L195.073 84.6984C197.425 84.7425 200.079 84.6437 200.968 84.4791C203.02 84.0992 204.917 82.929 206.012 81.368C206.768 80.29 206.881 79.8551 206.988 77.6138C207.054 76.2197 206.96 74.3641 206.779 73.4904C205.887 69.1832 201.548 67.4806 192.902 68.0455ZM98.4262 106.956C90.3325 107.035 83.6248 107.186 83.5204 107.291C83.416 107.396 84.9141 109.73 86.8493 112.479C88.7849 115.227 92.0532 119.876 94.1127 122.809C96.1722 125.741 98.6031 129.179 99.5148 130.447C100.426 131.715 101.795 133.635 102.556 134.713C105.65 139.1 107.713 141.688 108.115 141.688C108.587 141.688 131.466 107.572 131.309 107.103C131.199 106.774 121.431 106.731 98.4262 106.956ZM55.4076 107.395C55.3671 107.427 46.1518 107.536 34.929 107.637C23.7059 107.738 14.425 107.919 14.3045 108.04C13.9928 108.353 17.211 113.074 32.2983 134.439C35.7268 139.294 37.3256 141.573 37.7371 142.192C38.0834 142.712 38.9701 142.922 38.6531 142.408C38.5553 142.25 38.6126 142.12 38.78 142.12C38.9473 142.12 39.0845 142.25 39.0845 142.408C39.0845 143.428 40.3905 141.793 44.8366 135.207C46.0229 133.449 47.8348 130.797 48.863 129.313C55.8891 119.168 63.1484 107.918 62.8562 107.625C62.7026 107.472 55.5903 107.251 55.4076 107.395ZM72.0787 112.793C71.5389 113.467 70.0787 115.509 68.834 117.332C67.5893 119.155 65.4409 122.268 64.0595 124.25C55.9253 135.919 45.4118 151.801 45.4118 152.419C45.4118 152.751 47.842 156.44 50.0191 159.414C50.7738 160.444 52.0194 162.206 52.7873 163.33C54.1379 165.306 55.7462 167.607 58.51 171.519C59.2379 172.549 60.1407 173.847 60.5163 174.401C60.8916 174.956 62.6834 177.485 64.4981 180.022C66.3126 182.558 68.0992 185.06 68.4682 185.582C68.8369 186.104 69.4624 186.975 69.8579 187.519C70.2533 188.062 71.224 189.418 72.0149 190.531C72.8058 191.644 73.6677 192.556 73.9303 192.557C74.2104 192.559 75.1141 191.517 76.1146 190.038C77.0534 188.651 78.7798 186.12 79.9512 184.415C81.1226 182.709 82.6633 180.413 83.3751 179.311C84.087 178.209 86.1813 175.065 88.0294 172.324C98.3701 156.986 101.792 151.731 101.69 151.343C101.628 151.105 100.284 149.095 98.7034 146.876C95.1018 141.818 88.6825 132.714 85.1007 127.585C78.5955 118.269 73.6683 111.568 73.3229 111.568C73.1782 111.568 72.6183 112.119 72.0787 112.793ZM231.634 112.064C228.189 112.148 222.224 112.663 220.338 113.039C219.3 113.246 218.686 113.546 218.397 113.988C218.027 114.553 218.013 117.567 218.283 137.961C218.453 150.792 218.716 161.773 218.868 162.368L219.145 163.449H223.066C226.291 163.449 227.079 163.365 227.506 162.977C227.994 162.535 228.015 161.952 227.842 153.466C227.686 145.787 227.719 144.426 228.064 144.429C231.922 144.466 238.47 144.025 240.593 143.586C247.459 142.165 251.763 138.021 252.967 131.671C253.538 128.661 253.327 124.749 252.456 122.189C251.726 120.044 249.787 117.172 248.249 115.958C245.783 114.012 241.654 112.508 238.118 112.268C236.925 112.188 235.559 112.094 235.085 112.061C234.61 112.027 233.057 112.029 231.634 112.064ZM257.861 112.639C257.259 112.704 256.702 112.926 256.623 113.131C256.457 113.567 257.379 117.24 259.089 122.953C259.754 125.172 260.926 129.128 261.693 131.744C266.419 147.847 266.534 148.171 267.892 149.26C268.432 149.692 269.684 150.308 270.673 150.629C272.29 151.153 272.465 151.285 272.394 151.926C272.254 153.196 271.061 155.216 270.058 155.882C269.131 156.498 268.801 156.531 263.659 156.531C258.691 156.531 258.236 156.574 258.226 157.036C258.219 157.313 258.149 158.513 258.069 159.702C257.989 160.891 258.046 162.045 258.196 162.266C258.899 163.311 268.284 163.818 271.75 163C275.072 162.215 276.787 160.841 278.346 157.713C279.505 155.388 279.738 154.602 284.862 135.779C289.819 117.572 290.722 114.123 290.73 113.389C290.739 112.473 290.02 112.356 285.819 112.589C282.811 112.756 282.042 112.886 281.849 113.263C281.555 113.838 280.526 117.976 278.794 125.547C277.631 130.636 275.721 138.503 274.895 141.616C274.665 142.483 274.472 142.696 273.92 142.696C273.322 142.696 273.155 142.444 272.635 140.751C271.984 138.633 269.347 128.641 267.443 121.079C265.966 115.213 265.497 113.54 265.205 113.094C264.967 112.731 259.915 112.418 257.861 112.639ZM304.541 112.899C301.452 113.508 299.236 114.88 298.044 116.917C296.518 119.528 296.497 119.858 296.492 141.869C296.488 160.456 296.529 162.26 296.963 162.621C297.621 163.168 304.63 163.186 305.173 162.642C305.472 162.343 305.561 158.231 305.617 142.33L305.688 122.393L306.41 121.668L307.133 120.944L315.078 120.984C322.453 121.021 323.076 121.064 323.769 121.582C324.179 121.889 324.602 122.453 324.709 122.835C324.816 123.217 324.916 132.291 324.931 142.999C324.953 157.725 325.044 162.553 325.305 162.815C325.539 163.049 326.876 163.16 329.441 163.16C332.615 163.16 333.294 163.083 333.625 162.684C333.95 162.292 334.029 158.731 334.075 142.58C334.109 130.445 334.019 122.293 333.84 121.223C333.091 116.758 330.671 114.158 326.445 113.28C325.039 112.988 305.786 112.652 304.541 112.899ZM189.992 113.288C183.326 113.416 181.953 113.513 181.714 113.874C181.532 114.148 181.483 117.043 181.58 121.8C181.663 125.922 181.808 136.868 181.902 146.126C181.997 155.384 182.135 163.12 182.212 163.319C182.428 163.886 183.346 164.017 187.127 164.021C190.314 164.025 190.707 163.968 191.248 163.426C191.844 162.829 191.845 162.784 191.674 144.619C191.58 134.605 191.435 125.357 191.352 124.069C191.232 122.204 191.285 121.695 191.612 121.569C191.838 121.482 195.888 121.319 200.612 121.205C205.336 121.092 209.474 120.898 209.807 120.774C210.467 120.528 211.178 118.247 211.53 115.243C211.697 113.819 211.653 113.61 211.125 113.327C210.511 112.997 205.631 112.988 189.992 113.288ZM354.871 113.305C349.242 113.655 346.509 115.223 345.087 118.918C344.5 120.445 344.414 121.22 344.351 125.547C344.269 131.145 344.997 161.819 345.234 162.8C345.387 163.433 345.486 163.449 349.248 163.449C352.47 163.449 353.183 163.369 353.586 162.967C354.028 162.523 354.048 161.492 353.833 150.212C353.704 143.463 353.593 134.453 353.587 130.191L353.577 122.441L354.299 121.899C354.945 121.415 355.798 121.338 362.357 121.174C370.502 120.97 371.651 121.121 372.159 122.461C372.491 123.337 372.59 126.094 373.02 146.587C373.196 154.989 373.45 162.072 373.584 162.327C374.045 163.199 381.102 163.216 381.97 162.347C382.405 161.912 382.407 161.608 382.118 146.155C381.719 124.85 381.499 121.171 380.462 118.394C379.395 115.536 376.843 113.809 372.935 113.3C370.559 112.991 359.868 112.994 354.871 113.305ZM231.202 119.825C230.49 119.88 229.358 119.998 228.686 120.088L227.463 120.25L227.492 126.789C227.507 130.386 227.605 134.042 227.708 134.914L227.895 136.499L232.784 136.484C237.164 136.47 237.845 136.4 239.325 135.815C241.188 135.079 242.437 133.963 243.353 132.215C243.855 131.258 243.977 130.54 243.971 128.573C243.962 125.301 243.52 123.898 242.034 122.408C240.121 120.491 235.829 119.468 231.202 119.825Z" fill="#EAA000" fill-opacity="0.3"/>
<defs>
<radialGradient id="paint0_radial_913_1332" cx="0" cy="0" r="1" gradientUnits="userSpaceOnUse" gradientTransform="translate(164.394 102.5) rotate(7.67749) scale(303.325 124.532)">
<stop offset="0.00775993" stop-color="#AE9152"/>
<stop offset="1" stop-color="#795F26"/>
</radialGradient>
</defs>
</svg>
