<svg width="100" height="44" viewBox="0 0 100 44" fill="none" xmlns="http://www.w3.org/2000/svg">
<path fill-rule="evenodd" clip-rule="evenodd" d="M13.1671 1.50544C8.89509 7.29745 0 21.1827 0 22.0596C0 23.1982 13.0748 42.912 14.3817 43.744C14.917 44.0844 15.3792 44.0853 15.9117 43.7467C17.2182 42.9148 30.2976 23.1421 30.2976 21.9984C30.2976 21.3907 27.6952 17.0615 24.2697 11.9699C16.48 0.392341 16.1812 0 15.1488 0C14.6695 0 13.7776 0.677217 13.1671 1.50544ZM12.2797 7.152C10.8277 9.28927 9.64014 11.162 9.64014 11.3135C9.64014 11.804 14.8169 19.4549 15.1488 19.4549C15.4807 19.4549 20.6574 11.804 20.6574 11.3135C20.6574 10.9147 15.4219 3.26611 15.1488 3.26611C15.0225 3.26611 13.7317 5.01474 12.2797 7.152ZM58.31 6.36917C58.3256 6.89261 60.048 9.05257 60.2435 8.79409C60.3372 8.67042 60.7691 7.99598 61.2039 7.2956L61.9934 6.02177H60.1466C59.1308 6.02177 58.3045 6.17833 58.31 6.36917ZM37.9486 8.64679C37.7802 8.81633 37.6424 11.4001 37.6424 14.3883V19.8209L39.5934 20.0196C41.8336 20.2484 44.1991 19.7185 44.935 18.824C45.2132 18.4854 45.5694 17.5595 45.7268 16.766C46.1189 14.789 43.9494 12.5067 41.678 12.5067C40.4404 12.5067 40.1346 12.3228 40.1346 11.5803C40.1346 10.7706 40.4404 10.6539 42.5607 10.6539C44.8432 10.6539 44.9873 10.5849 44.9873 9.49586C44.9873 8.36609 44.9056 8.33783 41.6211 8.33783C39.7692 8.33783 38.1166 8.47679 37.9486 8.64679ZM49.1913 9.14845C48.9609 9.59406 48.2356 11.8578 47.5791 14.178C46.9227 16.4987 46.2552 18.7397 46.0964 19.1576C45.8682 19.7579 46.0955 19.9181 47.1761 19.9181C48.3297 19.9181 48.5881 19.7 48.8204 18.5285C49.0623 17.307 49.2873 17.1389 50.6777 17.1389C52.0618 17.1389 52.2968 17.3126 52.5617 18.5285C52.8165 19.6995 53.0832 19.9181 54.2538 19.9181C55.3541 19.9181 55.5837 19.7597 55.3546 19.1576C55.1958 18.7397 54.5283 16.4987 53.8718 14.178C52.3634 8.84597 52.0898 8.33783 50.7255 8.33783C50.1122 8.33783 49.4218 8.70284 49.1913 9.14845ZM56.2162 8.91221C56.0817 9.26611 56.0308 11.8351 56.1028 14.6208L56.2341 19.6865H57.7862C59.2758 19.6865 59.4007 19.5462 60.871 16.2124L62.4038 12.7383L62.4176 16.3282C62.4309 19.8565 62.4511 19.9181 63.5932 19.9181H64.7551L64.6261 14.2438L64.4971 8.56944H63.1558C61.9145 8.56944 61.6849 8.86358 60.0801 12.5067L58.3458 16.4441L58.2081 12.5118C58.0919 9.19802 57.9436 8.55508 57.2656 8.42445C56.8231 8.33922 56.3507 8.55878 56.2162 8.91221ZM69.7762 9.49586C69.7762 10.4737 69.9906 10.6539 71.1534 10.6539H72.5306V15.286V19.9181H73.6782H74.8258V15.286V10.6539H76.203C77.3658 10.6539 77.5801 10.4737 77.5801 9.49586C77.5801 8.35126 77.5342 8.33783 73.6782 8.33783C69.8221 8.33783 69.7762 8.35126 69.7762 9.49586ZM80.1775 8.68524C79.8612 9.20589 77.1211 18.8194 77.1211 19.4081C77.1211 19.6889 77.6426 19.9181 78.2802 19.9181C79.2052 19.9181 79.4958 19.6328 79.7193 18.5044C79.9764 17.2084 80.1366 17.1023 81.6409 17.2306C82.9607 17.3431 83.3339 17.5975 83.5479 18.5285C83.7411 19.3697 84.1657 19.7278 85.0999 19.8371C86.1617 19.9617 86.3426 19.8403 86.1378 19.1423C86.0015 18.6772 85.3382 16.3167 84.6638 13.8964C83.989 11.4761 83.2302 9.23554 82.9772 8.91685C82.4769 8.28688 80.5181 8.12475 80.1775 8.68524ZM87.5265 8.64679C87.358 8.81633 87.2203 11.0944 87.2203 13.7088C87.2203 19.9862 87.1473 19.9181 93.8532 19.9181C97.7322 19.9181 99.1773 19.7551 99.5744 19.272C99.9242 18.8467 100.061 16.9082 99.9751 13.5976C99.8535 8.9224 99.78 8.56944 98.9262 8.56944C98.0797 8.56944 97.998 8.9224 97.8768 13.0858L97.7455 17.6021H96.4014H95.0573L94.926 13.0858C94.8048 8.9224 94.7231 8.56944 93.8766 8.56944C93.0301 8.56944 92.9484 8.9224 92.8272 13.0858L92.6959 17.6021H91.1057H89.5156V12.97C89.5156 8.78715 89.4339 8.33783 88.6741 8.33783C88.2109 8.33783 87.6945 8.47679 87.5265 8.64679ZM50.1668 12.8685C49.6935 14.7501 49.7156 14.8228 50.7503 14.8228C51.7138 14.8228 51.7841 14.6908 51.426 13.549C51.2066 12.8486 50.944 11.969 50.843 11.5947C50.7415 11.2209 50.4372 11.7939 50.1668 12.8685ZM81.2604 11.8119C81.2494 12.3215 81.1153 13.2071 80.9634 13.7806C80.7394 14.6232 80.8743 14.8228 81.6666 14.8228C82.503 14.8228 82.6031 14.6357 82.347 13.549C82.1817 12.8486 81.8746 11.9625 81.6634 11.5803C81.3559 11.0217 81.2765 11.0675 81.2604 11.8119ZM5.83228 16.7915C4.72275 18.384 3.66692 19.9473 3.48698 20.2656C3.23358 20.713 4.26278 20.8446 8.02013 20.8446H12.8815L10.5582 17.3705C9.28024 15.4597 8.14867 13.8964 8.04263 13.8964C7.93705 13.8964 6.94228 15.1994 5.83228 16.7915ZM19.7393 17.3705L17.4161 20.8446H22.2774C26.0394 20.8446 27.0626 20.7135 26.8023 20.2656C26.0949 19.0455 22.4046 13.8964 22.238 13.8964C22.1416 13.8964 21.0173 15.4597 19.7393 17.3705ZM40.1672 16.4441C40.1672 18.013 40.2448 18.0991 41.5444 17.9703C42.7384 17.8518 42.9216 17.6489 42.9216 16.4441C42.9216 15.2392 42.7384 15.0363 41.5444 14.9178C40.2448 14.789 40.1672 14.8752 40.1672 16.4441ZM3.48698 23.7397C4.17923 24.9635 7.85993 30.1088 8.04263 30.1088C8.14867 30.1088 9.28024 28.5455 10.5582 26.6347L12.8815 23.1606H8.02013C4.26278 23.1606 3.23358 23.2922 3.48698 23.7397ZM19.7481 26.6477C21.0306 28.5659 22.2774 30.012 22.5184 29.8615C22.8935 29.628 25.764 25.5249 26.8019 23.7397C27.0622 23.2917 26.0394 23.1606 22.2774 23.1606H17.4161L19.7481 26.6477ZM46.4792 23.9277C45.478 24.1445 45.4464 24.3219 45.4464 29.678V35.2042H46.8235C48.1497 35.2042 48.2007 35.1268 48.2007 33.1197C48.2007 31.0413 48.2053 31.0353 49.828 31.0353C50.944 31.0353 51.8098 30.6777 52.5824 29.8981C54.9295 27.5297 53.2227 24.1107 49.5627 23.8499C48.4348 23.7693 47.0471 23.8045 46.4792 23.9277ZM37.6424 29.6456V35.2042H39.0196H40.3968L40.3963 30.6878L40.3954 26.1715H42.3473C44.0215 26.1715 44.3194 26.0233 44.4456 25.1293C44.5866 24.1274 44.458 24.0871 41.1175 24.0871H37.6424V29.6456ZM54.913 27.9086C55.5162 30.0102 56.3186 31.9617 56.6959 32.2442C57.7678 33.0479 57.5158 33.3513 55.7751 33.3513C54.5053 33.3513 54.1684 33.5347 54.1684 34.2277C54.1684 35.3871 56.1455 35.874 57.7201 35.1027C58.7438 34.6015 59.1652 33.7186 60.4368 29.414C61.2644 26.6116 61.9484 24.2668 61.9572 24.2029C61.9654 24.1389 61.3751 24.0871 60.6452 24.0871C59.3777 24.0871 59.2905 24.2242 58.7231 27.1044C58.3963 28.7637 57.9937 29.9625 57.828 29.7679C57.6623 29.5734 57.273 28.2157 56.9627 26.7505C56.4375 24.2747 56.3071 24.0871 55.1072 24.0871H53.8163L54.913 27.9086ZM63.1525 24.8148C62.5893 25.3836 62.4314 26.5995 62.4314 30.3733V35.2042H63.8085H65.1857V30.5442V25.8839L66.9071 26.0279L68.6286 26.1715L68.7599 30.6878C68.8898 35.143 68.9068 35.2042 70.0223 35.2042H71.1534V30.2015C71.1534 26.9279 70.9629 25.0065 70.6025 24.6429C69.7551 23.7878 64.0399 23.9198 63.1525 24.8148ZM73.4647 24.9829C73.2035 25.4758 72.9896 27.991 72.9896 30.5725V35.2658L74.252 35.1189L75.5144 34.9726L75.5502 30.572L75.586 26.1715H77.3864H79.1868L79.3181 30.6878C79.448 35.143 79.465 35.2042 80.5805 35.2042C81.7075 35.2042 81.7116 35.188 81.7116 30.5415C81.7116 24.2538 81.5992 24.0871 77.3506 24.0871C74.4485 24.0871 73.8692 24.2205 73.4647 24.9829ZM12.2797 28.4556C10.8277 30.6035 9.64014 32.4939 9.64014 32.6565C9.64014 33.1118 14.8825 40.7627 15.1947 40.7627C15.4807 40.7627 20.6574 33.0808 20.6574 32.6565C20.6574 32.2322 15.4807 24.5503 15.1947 24.5503C15.0432 24.5503 13.7317 26.3077 12.2797 28.4556ZM48.2007 27.5612C48.2007 29.1236 48.2911 29.2334 49.4631 29.0972C50.5276 28.974 50.7255 28.7326 50.7255 27.5612C50.7255 26.3897 50.5276 26.1484 49.4631 26.0251C48.2911 25.889 48.2007 25.9987 48.2007 27.5612Z" fill="url(#paint0_radial_340_1572)"/>
<path fill-rule="evenodd" clip-rule="evenodd" d="M13.1671 1.50544C8.89509 7.29745 0 21.1827 0 22.0596C0 23.1982 13.0748 42.912 14.3817 43.744C14.917 44.0844 15.3792 44.0853 15.9117 43.7467C17.2182 42.9148 30.2976 23.1421 30.2976 21.9984C30.2976 21.3907 27.6952 17.0615 24.2697 11.9699C16.48 0.392341 16.1812 0 15.1488 0C14.6695 0 13.7776 0.677217 13.1671 1.50544ZM12.2797 7.152C10.8277 9.28927 9.64014 11.162 9.64014 11.3135C9.64014 11.804 14.8169 19.4549 15.1488 19.4549C15.4807 19.4549 20.6574 11.804 20.6574 11.3135C20.6574 10.9147 15.4219 3.26611 15.1488 3.26611C15.0225 3.26611 13.7317 5.01474 12.2797 7.152ZM58.31 6.36917C58.3256 6.89261 60.048 9.05257 60.2435 8.79409C60.3372 8.67042 60.7691 7.99598 61.2039 7.2956L61.9934 6.02177H60.1466C59.1308 6.02177 58.3045 6.17833 58.31 6.36917ZM37.9486 8.64679C37.7802 8.81633 37.6424 11.4001 37.6424 14.3883V19.8209L39.5934 20.0196C41.8336 20.2484 44.1991 19.7185 44.935 18.824C45.2132 18.4854 45.5694 17.5595 45.7268 16.766C46.1189 14.789 43.9494 12.5067 41.678 12.5067C40.4404 12.5067 40.1346 12.3228 40.1346 11.5803C40.1346 10.7706 40.4404 10.6539 42.5607 10.6539C44.8432 10.6539 44.9873 10.5849 44.9873 9.49586C44.9873 8.36609 44.9056 8.33783 41.6211 8.33783C39.7692 8.33783 38.1166 8.47679 37.9486 8.64679ZM49.1913 9.14845C48.9609 9.59406 48.2356 11.8578 47.5791 14.178C46.9227 16.4987 46.2552 18.7397 46.0964 19.1576C45.8682 19.7579 46.0955 19.9181 47.1761 19.9181C48.3297 19.9181 48.5881 19.7 48.8204 18.5285C49.0623 17.307 49.2873 17.1389 50.6777 17.1389C52.0618 17.1389 52.2968 17.3126 52.5617 18.5285C52.8165 19.6995 53.0832 19.9181 54.2538 19.9181C55.3541 19.9181 55.5837 19.7597 55.3546 19.1576C55.1958 18.7397 54.5283 16.4987 53.8718 14.178C52.3634 8.84597 52.0898 8.33783 50.7255 8.33783C50.1122 8.33783 49.4218 8.70284 49.1913 9.14845ZM56.2162 8.91221C56.0817 9.26611 56.0308 11.8351 56.1028 14.6208L56.2341 19.6865H57.7862C59.2758 19.6865 59.4007 19.5462 60.871 16.2124L62.4038 12.7383L62.4176 16.3282C62.4309 19.8565 62.4511 19.9181 63.5932 19.9181H64.7551L64.6261 14.2438L64.4971 8.56944H63.1558C61.9145 8.56944 61.6849 8.86358 60.0801 12.5067L58.3458 16.4441L58.2081 12.5118C58.0919 9.19802 57.9436 8.55508 57.2656 8.42445C56.8231 8.33922 56.3507 8.55878 56.2162 8.91221ZM69.7762 9.49586C69.7762 10.4737 69.9906 10.6539 71.1534 10.6539H72.5306V15.286V19.9181H73.6782H74.8258V15.286V10.6539H76.203C77.3658 10.6539 77.5801 10.4737 77.5801 9.49586C77.5801 8.35126 77.5342 8.33783 73.6782 8.33783C69.8221 8.33783 69.7762 8.35126 69.7762 9.49586ZM80.1775 8.68524C79.8612 9.20589 77.1211 18.8194 77.1211 19.4081C77.1211 19.6889 77.6426 19.9181 78.2802 19.9181C79.2052 19.9181 79.4958 19.6328 79.7193 18.5044C79.9764 17.2084 80.1366 17.1023 81.6409 17.2306C82.9607 17.3431 83.3339 17.5975 83.5479 18.5285C83.7411 19.3697 84.1657 19.7278 85.0999 19.8371C86.1617 19.9617 86.3426 19.8403 86.1378 19.1423C86.0015 18.6772 85.3382 16.3167 84.6638 13.8964C83.989 11.4761 83.2302 9.23554 82.9772 8.91685C82.4769 8.28688 80.5181 8.12475 80.1775 8.68524ZM87.5265 8.64679C87.358 8.81633 87.2203 11.0944 87.2203 13.7088C87.2203 19.9862 87.1473 19.9181 93.8532 19.9181C97.7322 19.9181 99.1773 19.7551 99.5744 19.272C99.9242 18.8467 100.061 16.9082 99.9751 13.5976C99.8535 8.9224 99.78 8.56944 98.9262 8.56944C98.0797 8.56944 97.998 8.9224 97.8768 13.0858L97.7455 17.6021H96.4014H95.0573L94.926 13.0858C94.8048 8.9224 94.7231 8.56944 93.8766 8.56944C93.0301 8.56944 92.9484 8.9224 92.8272 13.0858L92.6959 17.6021H91.1057H89.5156V12.97C89.5156 8.78715 89.4339 8.33783 88.6741 8.33783C88.2109 8.33783 87.6945 8.47679 87.5265 8.64679ZM50.1668 12.8685C49.6935 14.7501 49.7156 14.8228 50.7503 14.8228C51.7138 14.8228 51.7841 14.6908 51.426 13.549C51.2066 12.8486 50.944 11.969 50.843 11.5947C50.7415 11.2209 50.4372 11.7939 50.1668 12.8685ZM81.2604 11.8119C81.2494 12.3215 81.1153 13.2071 80.9634 13.7806C80.7394 14.6232 80.8743 14.8228 81.6666 14.8228C82.503 14.8228 82.6031 14.6357 82.347 13.549C82.1817 12.8486 81.8746 11.9625 81.6634 11.5803C81.3559 11.0217 81.2765 11.0675 81.2604 11.8119ZM5.83228 16.7915C4.72275 18.384 3.66692 19.9473 3.48698 20.2656C3.23358 20.713 4.26278 20.8446 8.02013 20.8446H12.8815L10.5582 17.3705C9.28024 15.4597 8.14867 13.8964 8.04263 13.8964C7.93705 13.8964 6.94228 15.1994 5.83228 16.7915ZM19.7393 17.3705L17.4161 20.8446H22.2774C26.0394 20.8446 27.0626 20.7135 26.8023 20.2656C26.0949 19.0455 22.4046 13.8964 22.238 13.8964C22.1416 13.8964 21.0173 15.4597 19.7393 17.3705ZM40.1672 16.4441C40.1672 18.013 40.2448 18.0991 41.5444 17.9703C42.7384 17.8518 42.9216 17.6489 42.9216 16.4441C42.9216 15.2392 42.7384 15.0363 41.5444 14.9178C40.2448 14.789 40.1672 14.8752 40.1672 16.4441ZM3.48698 23.7397C4.17923 24.9635 7.85993 30.1088 8.04263 30.1088C8.14867 30.1088 9.28024 28.5455 10.5582 26.6347L12.8815 23.1606H8.02013C4.26278 23.1606 3.23358 23.2922 3.48698 23.7397ZM19.7481 26.6477C21.0306 28.5659 22.2774 30.012 22.5184 29.8615C22.8935 29.628 25.764 25.5249 26.8019 23.7397C27.0622 23.2917 26.0394 23.1606 22.2774 23.1606H17.4161L19.7481 26.6477ZM46.4792 23.9277C45.478 24.1445 45.4464 24.3219 45.4464 29.678V35.2042H46.8235C48.1497 35.2042 48.2007 35.1268 48.2007 33.1197C48.2007 31.0413 48.2053 31.0353 49.828 31.0353C50.944 31.0353 51.8098 30.6777 52.5824 29.8981C54.9295 27.5297 53.2227 24.1107 49.5627 23.8499C48.4348 23.7693 47.0471 23.8045 46.4792 23.9277ZM37.6424 29.6456V35.2042H39.0196H40.3968L40.3963 30.6878L40.3954 26.1715H42.3473C44.0215 26.1715 44.3194 26.0233 44.4456 25.1293C44.5866 24.1274 44.458 24.0871 41.1175 24.0871H37.6424V29.6456ZM54.913 27.9086C55.5162 30.0102 56.3186 31.9617 56.6959 32.2442C57.7678 33.0479 57.5158 33.3513 55.7751 33.3513C54.5053 33.3513 54.1684 33.5347 54.1684 34.2277C54.1684 35.3871 56.1455 35.874 57.7201 35.1027C58.7438 34.6015 59.1652 33.7186 60.4368 29.414C61.2644 26.6116 61.9484 24.2668 61.9572 24.2029C61.9654 24.1389 61.3751 24.0871 60.6452 24.0871C59.3777 24.0871 59.2905 24.2242 58.7231 27.1044C58.3963 28.7637 57.9937 29.9625 57.828 29.7679C57.6623 29.5734 57.273 28.2157 56.9627 26.7505C56.4375 24.2747 56.3071 24.0871 55.1072 24.0871H53.8163L54.913 27.9086ZM63.1525 24.8148C62.5893 25.3836 62.4314 26.5995 62.4314 30.3733V35.2042H63.8085H65.1857V30.5442V25.8839L66.9071 26.0279L68.6286 26.1715L68.7599 30.6878C68.8898 35.143 68.9068 35.2042 70.0223 35.2042H71.1534V30.2015C71.1534 26.9279 70.9629 25.0065 70.6025 24.6429C69.7551 23.7878 64.0399 23.9198 63.1525 24.8148ZM73.4647 24.9829C73.2035 25.4758 72.9896 27.991 72.9896 30.5725V35.2658L74.252 35.1189L75.5144 34.9726L75.5502 30.572L75.586 26.1715H77.3864H79.1868L79.3181 30.6878C79.448 35.143 79.465 35.2042 80.5805 35.2042C81.7075 35.2042 81.7116 35.188 81.7116 30.5415C81.7116 24.2538 81.5992 24.0871 77.3506 24.0871C74.4485 24.0871 73.8692 24.2205 73.4647 24.9829ZM12.2797 28.4556C10.8277 30.6035 9.64014 32.4939 9.64014 32.6565C9.64014 33.1118 14.8825 40.7627 15.1947 40.7627C15.4807 40.7627 20.6574 33.0808 20.6574 32.6565C20.6574 32.2322 15.4807 24.5503 15.1947 24.5503C15.0432 24.5503 13.7317 26.3077 12.2797 28.4556ZM48.2007 27.5612C48.2007 29.1236 48.2911 29.2334 49.4631 29.0972C50.5276 28.974 50.7255 28.7326 50.7255 27.5612C50.7255 26.3897 50.5276 26.1484 49.4631 26.0251C48.2911 25.889 48.2007 25.9987 48.2007 27.5612Z" fill="#EAA000" fill-opacity="0.3"/>
<defs>
<radialGradient id="paint0_radial_340_1572" cx="0" cy="0" r="1" gradientUnits="userSpaceOnUse" gradientTransform="translate(35.3535 22) rotate(7.66268) scale(65.2289 26.7298)">
<stop offset="0.00775993" stop-color="#AE9152"/>
<stop offset="1" stop-color="#795F26"/>
</radialGradient>
</defs>
</svg>
